<?xml version="1.0" encoding="utf-8"?>
<!-- Generator: Adobe Illustrator 18.0.0, SVG Export Plug-In . SVG Version: 6.00 Build 0)  -->
<!DOCTYPE svg PUBLIC "-//W3C//DTD SVG 1.1//EN" "http://www.w3.org/Graphics/SVG/1.1/DTD/svg11.dtd">
<svg version="1.1" id="Calque_1" xmlns="http://www.w3.org/2000/svg" xmlns:xlink="http://www.w3.org/1999/xlink" x="0px" y="0px"
	 viewBox="564.8 112 710.4 550" enable-background="new 564.8 112 710.4 550" xml:space="preserve">
<path d="M633.5,593.3h22.9v22.9h-22.9V593.3z"/>
<path d="M679.4,593.3h22.9v22.9h-22.9V593.3z"/>
<path d="M725.2,593.3h22.9v22.9h-22.9V593.3z"/>
<path d="M1114.8,593.3h91.7v22.9h-91.7V593.3z"/>
<g>
	<path d="M1042,267.9l-114.8-57.4l-151.3,56.7v68.2V403l114.8,57.4l151.3-56.7v-68.2V267.9z M935.5,234.5l75.4,37.7l-75.4,28.3
		V234.5z M900,332.7l17.7-6.7v12.1l-17.7,6.7V332.7z M917.8,232.9v74.2l-26.1,9.8l-84.8-42.4L917.8,232.9z M882.3,436.4l-75.4-37.7
		l75.4-28.3V436.4z M793.6,384.8v-97l88.7,44.4v19.4L793.6,384.8z M900,438v-74.2l26.1-9.8l84.8,42.4L900,438z M935.5,338.8v-19.4
		l88.7-33.3v97L935.5,338.8z"/>
	<path d="M803.5,203.9l-11.1-13.8c-7.2,5.8-14.1,12.2-20.3,19l13,12C790.8,215,797,209.2,803.5,203.9z"/>
	<path d="M846.9,178.7l-6.5-16.5c-8.6,3.4-17,7.5-25,12.2l8.9,15.3C831.5,185.5,839.1,181.8,846.9,178.7z"/>
	<path d="M769.4,240.8l-14.7-10c-5.2,7.7-9.9,15.8-13.9,24.1l16,7.7C760.5,255.1,764.7,247.8,769.4,240.8z"/>
	<path d="M740.4,335.8l-17.7,0c0,9.3,0.7,18.6,2.1,27.7l17.5-2.7C741,352.7,740.4,344.2,740.4,335.8z"/>
	<path d="M895.8,167.4l-1.4-17.7c-9.3,0.7-18.5,2.1-27.5,4.2l4,17.3C879,169.3,887.4,168.1,895.8,167.4z"/>
	<path d="M871.6,499.9c-8.2-1.8-16.3-4.3-24.1-7.4l-6.5,16.5c8.6,3.4,17.6,6.1,26.6,8.2L871.6,499.9z"/>
	<path d="M923,521.2l-1.3-17.7c-8.3,0.6-16.9,0.6-25.2,0l-1.3,17.7c4.5,0.3,9.1,0.5,13.7,0.5C913.7,521.7,918.4,521.6,923,521.2z"/>
	<path d="M824.8,481.6c-7.2-4.2-14.2-9-20.8-14.2l-11.1,13.9c7.3,5.8,15,11.1,23,15.7L824.8,481.6z"/>
	<path d="M755.1,440.7c5.2,7.6,11.1,14.9,17.4,21.7l13-12.1c-5.7-6.1-11-12.7-15.7-19.7L755.1,440.7z"/>
	<path d="M747.9,385.4l-16.9,5.3c2.7,8.8,6.2,17.6,10.2,25.9l16-7.7C753.5,401.3,750.4,393.4,747.9,385.4z"/>
	<path d="M1033.1,221.2l13-12c-6.3-6.8-13.1-13.2-20.3-19l-11.1,13.8C1021.3,209.3,1027.5,215,1033.1,221.2z"/>
	<path d="M994,189.8l8.9-15.3c-8-4.7-16.4-8.8-25-12.2l-6.5,16.5C979.1,181.8,986.7,185.5,994,189.8z"/>
	<path d="M1061.4,262.7l16-7.7c-4-8.3-8.7-16.5-13.9-24.1l-14.7,10C1053.5,247.8,1057.8,255.2,1061.4,262.7z"/>
	<path d="M1076,361l17.5,2.7c1.4-9.1,2.1-18.4,2.1-27.7l-17.7,0C1077.8,344.3,1077.2,352.7,1076,361z"/>
	<path d="M947.3,171.3l4-17.3c-9-2.1-18.2-3.5-27.5-4.2l-1.4,17.7C930.8,168.1,939.2,169.4,947.3,171.3z"/>
	<path d="M950.5,517.2c9-2,18-4.8,26.6-8.2l-6.5-16.5c-7.8,3.1-15.9,5.5-24.1,7.4L950.5,517.2z"/>
	<path d="M1002.3,497c8-4.6,15.7-9.9,23-15.7l-11.1-13.9c-6.6,5.2-13.6,10-20.8,14.2L1002.3,497z"/>
	<path d="M1048.4,430.7c-4.7,6.9-10,13.5-15.7,19.7l13,12.1c6.3-6.8,12.2-14.1,17.4-21.7L1048.4,430.7z"/>
	<path d="M1061.1,408.9l16,7.7c4-8.3,7.5-17,10.2-25.9l-16.9-5.3C1067.9,393.5,1064.7,401.4,1061.1,408.9z"/>
	<path d="M747.8,285.5L731,280c-2.9,8.8-5.2,17.9-6.7,27l17.5,3C743.2,301.7,745.2,293.5,747.8,285.5z"/>
	<path d="M1075,309.9l17.5-3c-1.6-9.1-3.8-18.2-6.7-27l-16.9,5.5C1071.5,293.5,1073.6,301.7,1075,309.9z"/>
</g>
<path d="M1252.3,547.4V169.3c0-31.7-25.6-57.3-57.3-57.3H645c-31.7,0-57.3,25.6-57.3,57.3v378.1h-22.9v57.3
	c0,31.7,25.6,57.3,57.3,57.3h595.8c31.7,0,57.3-25.6,57.3-57.3v-57.3H1252.3z M1252.3,604.7c0,18.9-15.5,34.4-34.4,34.4H622.1
	c-18.9,0-34.4-15.5-34.4-34.4v-34.4h236c16.5,14.8,37.5,22.9,59.9,22.9h72.6c22.3,0,43.4-8.2,59.9-22.9h144.5v-22.9h-153.7l-3.3,3.3
	c-12.6,12.6-29.4,19.6-47.3,19.6h-72.6c-17.9,0-34.7-6.9-47.3-19.6l-3.3-3.3H656.5V180.8h132.7c11.6-9,24.2-16.7,37.7-22.9H656.5
	c-12.6,0-22.9,10.3-22.9,22.9v366.7h-22.9V169.3c0-18.9,15.5-34.4,34.4-34.4h550c18.9,0,34.4,15.5,34.4,34.4v378.1h-22.9V180.8
	c0-12.6-10.3-22.9-22.9-22.9H991.4c13.5,6.2,26.1,13.9,37.7,22.9h154.5v389.6h68.8V604.7z"/>
</svg>
