<svg xmlns="http://www.w3.org/2000/svg" viewBox="0 0 397.39 511.53"><defs><style>.cls-1{fill:#fff;}</style></defs><title>Fichier 1django</title><g id="Calque_2" data-name="Calque 2"><g id="Calque_1-2" data-name="Calque 1"><path d="M308.69,511.53c-9.37-4.63-18.71-9.34-28.14-13.87-14.26-6.86-28.58-13.58-42.86-20.37-1.63-.78-3.22-1.65-5.5-2.82,1.66-1,2.8-1.75,4-2.39,7.3-4,14.72-7.78,21.92-12,29.41-17.11,46.12-43.2,50.36-76.42a636.86,636.86,0,0,0,4.87-73.18c.67-58.15.21-116.31.21-174.47v-6.41h83.51c.09,1.65.28,3.39.28,5.13,0,63.66.16,127.32-.06,191-.09,26.14-.54,52.3-4.77,78.22-7.87,48.28-33.56,83.25-77.69,104.55-1.78.86-3.42,2-5.12,3Z"/><path d="M180.48,126.6V.45c2-.14,3.58-.34,5.17-.34,24.49,0,49,.07,73.48-.11,4.17,0,5.3,1.19,5.3,5.33q-.17,188.46,0,376.9c0,3.8-1.17,5.06-4.86,5.73-42.39,7.75-85,12.73-128.17,9.5-21.71-1.62-42.87-5.93-62.84-15C36.18,367.79,15,343.31,6,309c-8.41-32.11-8.35-64.44,2.15-96.08,15.43-46.54,48.39-74.21,95.58-85.29a164.77,164.77,0,0,1,72.35-1.23c1,.21,2,.39,3,.52A5.47,5.47,0,0,0,180.48,126.6Zm.06,135.16c0-20.83-.09-41.66.09-62.49,0-3.52-1.11-4.92-4.43-5.79a90.46,90.46,0,0,0-38.14-1.79c-24.64,4.09-41.15,17.9-48.39,42a98.81,98.81,0,0,0-1.28,51.87c5.73,24.18,21,38.82,45.28,43.72,14.55,2.92,29.2,1.59,43.81.07,3.53-.37,3.07-2.79,3.07-5.1Q180.53,293,180.54,261.76Z"/><path d="M313.73,86V.9H397V86Z"/><path class="cls-1" d="M180.54,261.76q0,31.25,0,62.49c0,2.31.46,4.73-3.07,5.1-14.61,1.52-29.26,2.85-43.81-.07-24.3-4.9-39.55-19.54-45.28-43.72a98.81,98.81,0,0,1,1.28-51.87c7.24-24.1,23.75-37.91,48.39-42a90.46,90.46,0,0,1,38.14,1.79c3.32.87,4.46,2.27,4.43,5.79C180.45,220.1,180.54,240.93,180.54,261.76Z"/></g></g></svg>