<svg xmlns="http://www.w3.org/2000/svg" viewBox="0 0 398.04 380.85"><title>jquerydjango</title><g id="Calque_2" data-name="Calque 2"><g id="Calque_1-2" data-name="Calque 1"><path d="M388.22,276c-.49,1.13-.94,2.27-1.47,3.37a172.81,172.81,0,0,1-22,34.63q-38.58,47.48-98.11,61.58a200.44,200.44,0,0,1-30.75,4.66,245.43,245.43,0,0,1-30.2.35,249.57,249.57,0,0,1-36.76-4.4,112.55,112.55,0,0,1-13.14-3.81,232.06,232.06,0,0,1-91-55.35,221.89,221.89,0,0,1-39-51.05,205.06,205.06,0,0,1-23.18-65.1A171.39,171.39,0,0,1,.08,166.1c.81-25.26,7-49,19.94-70.87a104.06,104.06,0,0,1,8.09-11.81c7.12-8.93,14.16-17.93,21.24-26.89a5.64,5.64,0,0,1,2.11-1.78c-.33.72-.63,1.46-1,2.18a155.23,155.23,0,0,0-14.39,58.9c-1.39,34.91,7,67.51,23.34,98.18a218.9,218.9,0,0,0,40.72,53.63,232.73,232.73,0,0,0,42.55,32.89,230.66,230.66,0,0,0,58.45,25.07,185.94,185.94,0,0,0,20.15,4c6.77,1.06,13.58,1.83,20.42,2.24,5.39.33,10.79.45,16.19.45a192.47,192.47,0,0,0,55-7.69c19.94-5.88,38.19-15,54.31-28.27a137.84,137.84,0,0,0,18.54-18.41c.66-.8,1.34-1.57,2-2.35Z"/><path d="M152.85,20A112.17,112.17,0,0,0,143,48.48a120,120,0,0,0-1.82,34.4c2.41,27,12.44,51.09,28.62,72.61,23.74,31.58,54.87,52.36,93.11,62.34a142.74,142.74,0,0,0,43.51,4.5c24.51-1.25,47.09-8.31,67.15-22.74A106.66,106.66,0,0,0,395.85,178c.51-.65,1-1.31,1.55-1.94a2,2,0,0,1,.5-.33c.41.79-.18,1.41-.42,2A109.29,109.29,0,0,1,388.87,195q-26.78,43.57-76.23,56.66a161.13,161.13,0,0,1-51.26,4.63,226.92,226.92,0,0,1-24.12-2.68,28.2,28.2,0,0,1-3.65-.78,174.71,174.71,0,0,1-43.09-19.16,171,171,0,0,1-33.19-27.13c-1.64-1.73-3.38-3.38-5-5.12a46.49,46.49,0,0,1-3.23-3.79c-9.62-12.71-18.09-26.1-23.91-41a135.35,135.35,0,0,1-8.87-37.74,118.36,118.36,0,0,1,5.83-49.41,101.26,101.26,0,0,1,12.79-25.18c5.24-7.49,10.55-14.92,15.83-22.38a14.84,14.84,0,0,1,1.34-1.71c.14-.15.55-.06.84-.08Z"/><path d="M236.49.79a56.2,56.2,0,0,0-5.3,15.87c-2.92,15.13-1,29.83,4.76,44,11.93,29.08,32.87,48.89,62.42,59.59a106.94,106.94,0,0,0,21.78,5,98.1,98.1,0,0,0,17.38,1.08,75.84,75.84,0,0,0,20.8-3.49,57.25,57.25,0,0,0,24.82-16l2.14-2.3c.06.38.16.6.09.72a86.2,86.2,0,0,1-20.05,25.18,72.55,72.55,0,0,1-34.65,15.93,96.09,96.09,0,0,1-27.3.8c-3.71-.4-7.42-.87-11.1-1.49a65.56,65.56,0,0,1-13.65-4.22c-22.18-9-39.67-23.49-52-44.08a84.18,84.18,0,0,1-11.43-31.71c-2.81-20,1.32-38.37,13.06-54.92,2.22-3.13,4.5-6.22,6.77-9.32.36-.5.77-1,1.52-.57Z"/><path d="M236.56.82a4.83,4.83,0,0,1-.37-.42.33.33,0,0,1,0-.27.73.73,0,0,1,.23-.13c0,.16,0,.32.05.48s0,.19,0,.3Z"/><path d="M152.94,20.09a2.91,2.91,0,0,1-.26-.45.29.29,0,0,1,.08-.24s.14,0,.22-.07a3.53,3.53,0,0,1,0,.46c0,.08-.1.15-.14.24Z"/></g></g></svg>