<svg height="496pt" viewBox="0 -4 496 496" width="496pt" xmlns="http://www.w3.org/2000/svg"><g fill="#f0bc5e"><path d="m56 288h384v32h-384zm0 0"/><path d="m256 416c-13.230469 0-24-10.769531-24-24v-16c0-13.230469 10.769531-24 24-24s24 10.769531 24 24v16c0 13.230469-10.769531 24-24 24zm0 0"/><path d="m320 416c-13.230469 0-24-10.769531-24-24v-16c0-13.230469 10.769531-24 24-24s24 10.769531 24 24v16c0 13.230469-10.769531 24-24 24zm0 0"/><path d="m136 96v-80c0-8.839844 7.160156-16 16-16h208c8.839844 0 16 7.160156 16 16v96h-160v-16zm0 0"/></g><path d="m496 344h-16v-304h-48v64h-80v-80h-192v64h-48v-24h-16v24h-16v16h-16v-64h-48v304h-16v112h65.753906l7.988282 32h108.496093l7.992188-32h115.511719l7.992187 32h108.496094l7.992187-32h65.777344zm-32-288v288h-16v-288zm-48 288v96h-336v-96h-16v-16h32v-16h-32v-16h368v16h-320v16h320v16zm-200-80c0-8.824219 7.175781-16 16-16s16 7.175781 16 16h16c0-16.921875-13.238281-30.679688-29.886719-31.785156 2.742188-4.878906 7.902344-8.214844 13.886719-8.214844v8h16v-8c0-13.230469 10.769531-24 24-24 9.59375 0 17.824219 5.695312 21.664062 13.847656-8.238281 5.792969-13.664062 15.335938-13.664062 26.152344h16c0-8.824219 7.175781-16 16-16 5.894531 0 11 3.238281 13.777344 8h-5.777344v16h8c8.824219 0 16 7.175781 16 16s-7.175781 16-16 16h-112c-8.824219 0-16-7.175781-16-16zm216-128h-48v16h48v128h-60.449219c2.753907-4.726562 4.449219-10.144531 4.449219-16 0-11.945312-6.65625-22.257812-16.375-27.753906-1.890625-15.863282-15.265625-28.246094-31.625-28.246094-1.105469 0-2.144531.214844-3.214844.328125-6.113281-14.289063-20.289062-24.328125-36.785156-24.328125-16.472656 0-30.632812 10.015625-36.761719 24.273438-1.078125-.105469-2.140625-.273438-3.238281-.273438-16.359375 0-29.734375 12.382812-31.625 28.246094-9.71875 5.496094-16.375 15.808594-16.375 27.753906 0 5.855469 1.695312 11.273438 4.449219 16h-140.449219v-128h16v16h25.753906l7.988282 32h22.257812v64h48v-16h-32v-48h22.246094l7.992187-32h41.761719v-16h144v-16h-144v-16h208zm-266.246094 32-4.011718 16h-35.503907l-4.007812-16zm10.246094-128h160v64h-112v-16h-16v-24h-16v24h-16zm-80 64h112v48h-16v-32h-16v32h-16v-32h-16v32h-48zm-16 16v16h-16v-16zm-48-64h16v288h-16zm32 384h-48v-80h48zm105.753906 32h-83.507812l-4.007813-16h91.515625zm240 0h-83.507812l-4.007813-16h91.515625zm70.246094-32h-48v-80h48zm0 0"/><path d="m112 120h16v16h-16zm0 0"/><path d="m96 416h112v-64h-112zm96-16h-32v-32h32zm-80-32h32v32h-32zm0 0"/><path d="m368 360h16v16h-16zm0 0"/><path d="m368 392h16v16h-16zm0 0"/></svg>