<?xml version="1.0" encoding="utf-8"?>
<!-- Generator: Adobe Illustrator 23.0.6, SVG Export Plug-In . SVG Version: 6.00 Build 0)  -->
<svg version="1.1" id="Calque_1" xmlns="http://www.w3.org/2000/svg" xmlns:xlink="http://www.w3.org/1999/xlink" x="0px" y="0px"
	 viewBox="0 0 710.4 550" style="enable-background:new 0 0 710.4 550;" xml:space="preserve">
<g id="Lumiere">
	<path d="M73.6,481.3h13c2.7,0,4.9,2.2,4.9,4.9v13c0,2.7-2.2,4.9-4.9,4.9h-13c-2.7,0-4.9-2.2-4.9-4.9v-13
		C68.7,483.5,70.9,481.3,73.6,481.3z"/>
	<path d="M119.5,481.3h13c2.7,0,4.9,2.2,4.9,4.9v13c0,2.7-2.2,4.9-4.9,4.9h-13c-2.7,0-4.9-2.2-4.9-4.9v-13
		C114.6,483.5,116.8,481.3,119.5,481.3z"/>
	<path d="M165.3,481.3h13c2.7,0,4.9,2.2,4.9,4.9v13c0,2.7-2.2,4.9-4.9,4.9h-13c-2.7,0-4.9-2.2-4.9-4.9v-13
		C160.4,483.5,162.6,481.3,165.3,481.3z"/>
	<path d="M554.9,481.3h81.8c2.7,0,4.9,2.2,4.9,4.9v13c0,2.7-2.2,4.9-4.9,4.9h-81.8c-2.7,0-4.9-2.2-4.9-4.9v-13
		C550,483.5,552.2,481.3,554.9,481.3z"/>
</g>
<path id="Cube" d="M475.4,155L363.7,99.1c-0.8-0.4-1.8-0.5-2.6-0.1l-147.9,55.4c-1.3,0.5-2.1,1.7-2.1,3v65.9V289
	c0,1.2,0.7,2.4,1.8,2.9l111.7,55.9c0.8,0.4,1.8,0.5,2.6,0.1l147.9-55.4c1.3-0.5,2.1-1.7,2.1-3v-65.9v-65.6
	C477.2,156.7,476.5,155.6,475.4,155z M375.4,124.9l64,32c2.5,1.3,2.3,5-0.3,6l-64,24c-2.1,0.8-4.4-0.8-4.4-3v-56
	C370.7,125.3,373.2,123.8,375.4,124.9z M337.3,219.9l11.2-4.2c2.1-0.8,4.4,0.8,4.4,3v5.1c0,1.4-0.8,2.6-2.1,3l-11.2,4.2
	c-2.1,0.8-4.4-0.8-4.4-3v-5.1C335.2,221.6,336,220.4,337.3,219.9z M353,125.6v67.2c0,1.4-0.8,2.6-2.1,3l-22.7,8.5
	c-0.8,0.3-1.8,0.3-2.6-0.1l-76.9-38.4c-2.5-1.3-2.3-5,0.3-6l99.5-37.3C350.7,121.8,353,123.3,353,125.6z M312.8,322l-64-32
	c-2.5-1.3-2.3-5,0.3-6l64-24c2.1-0.8,4.4,0.8,4.4,3v56C317.5,321.6,315,323.1,312.8,322z M228.8,268.1v-87c0-2.4,2.5-4,4.7-2.9
	l82.2,41.1c1.1,0.6,1.8,1.7,1.8,2.9v15.1c0,1.4-0.8,2.6-2.1,3l-82.2,30.8C231.1,272,228.8,270.4,228.8,268.1z M335.2,321.3v-67.2
	c0-1.4,0.8-2.6,2.1-3l22.7-8.5c0.8-0.3,1.8-0.3,2.6,0.1l76.9,38.4c2.5,1.3,2.3,5-0.3,6l-99.5,37.3
	C337.5,325.1,335.2,323.6,335.2,321.3z M370.7,224.8v-15.1c0-1.4,0.8-2.6,2.1-3l82.2-30.9c2.1-0.8,4.4,0.8,4.4,3v87
	c0,2.4-2.5,4-4.7,2.9l-82.2-41C371.4,227.1,370.7,226,370.7,224.8z"/>
<g id="Dots">
	
		<animateTransform  accumulate="none" additive="replace" attributeName="transform" begin="0s" calcMode="linear" dur="150s" fill="remove" from="0 345 224" repeatCount="indefinite" restart="always" to="-360 345 224" type="rotate" xmlns="http://www.w3.org/2000/svg">
		</animateTransform>
	<path d="M236,88.5l-5.6-7c-1.5-1.9-4.4-2.2-6.3-0.6c-4.8,4.1-9.4,8.4-13.8,12.9c-1.7,1.8-1.6,4.6,0.2,6.3l6.6,6.1
		c1.7,1.6,4.4,1.5,6.1-0.2c3.9-4,8-7.8,12.2-11.4C237.2,93.1,237.5,90.4,236,88.5z"/>
	<path d="M280.5,62.7l-3.3-8.3c-0.9-2.3-3.5-3.4-5.8-2.4c-5.8,2.4-11.4,5.2-16.9,8.3c-2.2,1.2-2.9,3.9-1.7,6.1l4.5,7.7
		c1.2,2.1,3.8,2.8,5.9,1.6c4.8-2.7,9.8-5.1,15-7.3C280.3,67.4,281.4,64.9,280.5,62.7z"/>
	<path d="M201,126.4l-7.5-5.1c-2-1.4-4.8-0.8-6.2,1.3c-3.4,5.3-6.6,10.7-9.4,16.3c-1.1,2.2-0.2,4.9,2,6l8.1,3.9
		c2.1,1,4.7,0.2,5.8-1.9c2.6-4.9,5.4-9.8,8.4-14.5C203.6,130.4,203,127.7,201,126.4z"/>
	<path d="M171.3,223.8h-8.9c-2.5,0-4.5,2-4.4,4.5c0.2,6.3,0.6,12.5,1.4,18.7c0.3,2.5,2.6,4.2,5,3.8l8.8-1.4c2.3-0.4,4-2.5,3.7-4.9
		c-0.7-5.4-1.1-11-1.2-16.5C175.6,225.7,173.6,223.8,171.3,223.8z"/>
	<path d="M330.7,51.1l-0.7-9c-0.2-2.5-2.4-4.3-4.8-4c-6.3,0.6-12.5,1.6-18.6,2.8c-2.4,0.5-4,2.9-3.4,5.3l2,8.8
		c0.5,2.3,2.8,3.8,5.1,3.3c5.4-1.1,10.9-1.9,16.5-2.5C329.1,55.6,330.8,53.5,330.7,51.1z"/>
	<path d="M302.6,386.9c-5.4-1.3-10.7-3-15.9-4.9c-2.2-0.8-4.7,0.3-5.6,2.5l-3.3,8.3c-0.9,2.3,0.3,4.9,2.6,5.7c5.9,2.1,11.9,4,18,5.5
		c2.4,0.6,4.8-0.9,5.4-3.3l2-8.7C306.4,389.8,304.9,387.5,302.6,386.9z"/>
	<path d="M357.9,404.8l-0.7-9c-0.2-2.4-2.2-4.2-4.6-4.1c-5.5,0.3-11.2,0.3-16.7,0c-2.4-0.1-4.4,1.7-4.6,4.1l-0.7,8.9
		c-0.2,2.5,1.7,4.6,4.2,4.7c3.1,0.1,6.1,0.2,9.2,0.2c3.3,0,6.5,0,9.6-0.2C356.2,409.4,358.1,407.2,357.9,404.8z"/>
	<path d="M256.4,367.4c-4.7-2.9-9.3-6.1-13.8-9.4c-1.9-1.4-4.6-1.1-6.1,0.8l-5.6,7.1c-1.5,1.9-1.2,4.8,0.8,6.3
		c5,3.8,10.2,7.4,15.6,10.6c2.1,1.3,4.9,0.6,6.1-1.5l4.5-7.8C259,371.3,258.4,368.7,256.4,367.4z"/>
	<path d="M192.9,332.4c3.7,5.1,7.6,10,11.8,14.7c1.6,1.8,4.5,2,6.3,0.3l6.6-6.1c1.7-1.6,1.9-4.3,0.3-6.1c-3.7-4.1-7.1-8.5-10.4-13
		c-1.4-1.9-4.1-2.4-6-1.1l-7.4,5.1C191.9,327.6,191.4,330.4,192.9,332.4z"/>
	<path d="M178.9,274.7l-8.5,2.7c-2.4,0.7-3.7,3.3-2.9,5.6c2,5.9,4.3,11.8,6.9,17.5c1,2.3,3.7,3.2,6,2.2l8-3.9c2.2-1,3.1-3.6,2.1-5.8
		c-2.3-5.1-4.3-10.3-6.1-15.5C183.7,275.2,181.2,274,178.9,274.7z"/>
	<path d="M471.5,106.2l6.5-6c1.8-1.7,1.9-4.5,0.2-6.3c-4.4-4.5-8.9-8.8-13.7-12.8c-1.9-1.6-4.7-1.3-6.3,0.6l-5.6,7
		c-1.5,1.9-1.2,4.6,0.6,6.1c4.3,3.6,8.3,7.4,12.2,11.3C467,107.8,469.8,107.9,471.5,106.2z"/>
	<path d="M431.4,74l4.5-7.7c1.2-2.1,0.5-4.9-1.7-6.1c-5.5-3-11.1-5.8-16.9-8.3c-2.3-1-4.9,0.1-5.8,2.4l-3.3,8.3
		c-0.9,2.2,0.2,4.7,2.4,5.6c5.1,2.1,10,4.6,14.9,7.3C427.6,76.8,430.2,76.1,431.4,74z"/>
	<path d="M500.5,148.8l8.1-3.9c2.2-1.1,3.1-3.8,2-6c-2.9-5.6-6-11.1-9.4-16.3c-1.3-2.1-4.1-2.6-6.2-1.2l-7.4,5.1c-2,1.3-2.5,4-1.2,6
		c3,4.7,5.8,9.5,8.3,14.4C495.8,149,498.4,149.9,500.5,148.8z"/>
	<path d="M515.4,249.7l8.9,1.4c2.4,0.4,4.7-1.3,5-3.8c0.8-6.2,1.3-12.4,1.4-18.7c0.1-2.5-1.9-4.5-4.4-4.5h-9c-2.4,0-4.3,1.9-4.4,4.2
		c-0.2,5.5-0.6,11.1-1.3,16.6C511.5,247.2,513.1,249.3,515.4,249.7z"/>
	<path d="M383.5,55.1l2-8.7c0.6-2.4-1-4.8-3.4-5.3c-6.1-1.3-12.3-2.2-18.6-2.8c-2.5-0.2-4.6,1.6-4.8,4l-0.7,8.9
		c-0.2,2.4,1.6,4.5,3.9,4.7c5.5,0.6,11,1.4,16.5,2.5C380.7,58.9,382.9,57.4,383.5,55.1z"/>
	<path d="M390.1,404.2c6.1-1.5,12.1-3.4,18-5.6c2.3-0.8,3.5-3.4,2.6-5.7l-3.3-8.3c-0.9-2.2-3.3-3.3-5.6-2.5
		c-5.2,1.9-10.6,3.5-16,4.9c-2.3,0.6-3.7,2.9-3.2,5.2l2,8.8C385.3,403.3,387.7,404.8,390.1,404.2z"/>
	<path d="M441.4,382.7c5.3-3.3,10.5-6.8,15.6-10.6c2-1.5,2.3-4.3,0.8-6.3l-5.6-7.1c-1.5-1.9-4.2-2.2-6.1-0.8
		c-4.5,3.3-9.1,6.5-13.8,9.4c-2,1.2-2.7,3.9-1.5,5.9l4.5,7.8C436.5,383.3,439.3,384,441.4,382.7z"/>
	<path d="M481.1,322.2c-3.2,4.5-6.7,8.8-10.4,13c-1.6,1.8-1.4,4.5,0.3,6.1l6.6,6.1c1.8,1.7,4.6,1.5,6.3-0.3
		c4.2-4.7,8.1-9.6,11.8-14.7c1.4-2,1-4.8-1.1-6.2l-7.5-5.1C485.2,319.8,482.5,320.3,481.1,322.2z"/>
	<path d="M500.2,298.8l8.1,3.9c2.2,1.1,4.9,0.1,5.9-2.1c2.6-5.7,4.9-11.6,6.9-17.6c0.8-2.3-0.5-4.8-2.9-5.6l-8.5-2.7
		c-2.3-0.7-4.7,0.5-5.5,2.8c-1.8,5.3-3.9,10.5-6.2,15.6C497.1,295.2,498.1,297.7,500.2,298.8z"/>
	<path d="M178.9,172.2l-8.5-2.8c-2.3-0.8-4.9,0.5-5.6,2.9c-1.8,6-3.4,12.2-4.6,18.3c-0.5,2.4,1.1,4.7,3.6,5.2l8.9,1.5
		c2.3,0.4,4.6-1.1,5-3.5c1.1-5.5,2.4-10.9,4-16.3C182.4,175.3,181.1,172.9,178.9,172.2z"/>
	<path d="M514.5,197.2l8.8-1.5c2.4-0.4,4-2.8,3.6-5.2c-1.2-6.1-2.7-12.3-4.5-18.3c-0.7-2.4-3.2-3.7-5.6-2.9l-8.6,2.8
		c-2.3,0.7-3.5,3.1-2.8,5.4c1.6,5.4,3,10.8,4.1,16.2C509.9,196,512.1,197.6,514.5,197.2z"/>
</g>
<path id="Cumputer" d="M687.5,435.4V57.3c0-31.7-25.6-57.3-57.3-57.3h-550C48.5,0,22.9,25.6,22.9,57.3v378.1H0v57.3
	C0,524.4,25.6,550,57.3,550h595.8c31.7,0,57.3-25.6,57.3-57.3v-57.3L687.5,435.4L687.5,435.4z M687.5,492.7
	c0,18.9-15.5,34.4-34.4,34.4H57.3c-18.9,0-34.4-15.5-34.4-34.4v-34.4h236c16.5,14.8,37.5,22.9,59.9,22.9h72.6
	c22.3,0,43.4-8.2,59.9-22.9h144.5v-22.9H442.1l-3.3,3.3c-12.6,12.6-29.4,19.6-47.3,19.6h-72.6c-17.9,0-34.7-6.9-47.3-19.6l-3.3-3.3
	H91.7V68.8h132.7c11.6-9,24.2-16.7,37.7-22.9H91.7c-12.6,0-22.9,10.3-22.9,22.9v366.7H45.9V57.3c0-18.9,15.5-34.4,34.4-34.4h550
	c18.9,0,34.4,15.5,34.4,34.4v378.1h-22.9V68.8c0-12.6-10.3-22.9-22.9-22.9H426.6c13.5,6.2,26.1,13.9,37.7,22.9h154.5v389.6h68.8
	L687.5,492.7L687.5,492.7z"/>
</svg>
