<?xml version="1.0" encoding="utf-8"?>
<!-- Generator: Adobe Illustrator 23.0.6, SVG Export Plug-In . SVG Version: 6.00 Build 0)  -->
<svg version="1.1" id="Calque_1" xmlns="http://www.w3.org/2000/svg" xmlns:xlink="http://www.w3.org/1999/xlink" x="0px" y="0px"
	 viewBox="0 0 710.4 550" style="enable-background:new 0 0 710.4 550;" xml:space="preserve">
<g id="Lumiere">
	<path d="M68.7,481.3h22.9v22.9H68.7V481.3z"/>
	<path d="M114.6,481.3h22.9v22.9h-22.9V481.3z"/>
	<path d="M160.4,481.3h22.9v22.9h-22.9V481.3z"/>
	<path d="M550,481.3h91.7v22.9H550V481.3z"/>
</g>
<path id="Cube" d="M477.2,155.9L362.4,98.5l-151.3,56.7v68.2V291l114.8,57.4l151.3-56.7v-68.2V155.9z M370.7,122.5l75.4,37.7
	l-75.4,28.3V122.5z M335.2,220.7l17.7-6.7v12.1l-17.7,6.7V220.7z M353,120.9v74.2l-26.1,9.8l-84.8-42.4L353,120.9z M317.5,324.4
	l-75.4-37.7l75.4-28.3V324.4z M228.8,272.8v-97l88.7,44.4v19.4L228.8,272.8z M335.2,326v-74.2l26.1-9.8l84.8,42.4L335.2,326z
	 M370.7,226.8v-19.4l88.7-33.3v97L370.7,226.8z"/>
<g id="Dots">
    <animateTransform xmlns="http://www.w3.org/2000/svg" attributeName="transform" type="rotate" from="0 345 224" to="-360 345 224" begin="0s" dur="150s" repeatCount="indefinite"/>
	<path d="M238.7,91.9l-11.1-13.8c-7.2,5.8-14.1,12.2-20.3,19l13,12C226,103,232.2,97.2,238.7,91.9z"/>
	<path d="M282.1,66.7l-6.5-16.5c-8.6,3.4-17,7.5-25,12.2l8.9,15.3C266.7,73.5,274.3,69.8,282.1,66.7z"/>
	<path d="M204.6,128.8l-14.7-10c-5.2,7.7-9.9,15.8-13.9,24.1l16,7.7C195.7,143.1,199.9,135.8,204.6,128.8z"/>
	<path d="M175.6,223.8h-17.7c0,9.3,0.7,18.6,2.1,27.7l17.5-2.7C176.2,240.7,175.6,232.2,175.6,223.8z"/>
	<path d="M331,55.4l-1.4-17.7c-9.3,0.7-18.5,2.1-27.5,4.2l4,17.3C314.2,57.3,322.6,56.1,331,55.4z"/>
	<path d="M306.8,387.9c-8.2-1.8-16.3-4.3-24.1-7.4l-6.5,16.5c8.6,3.4,17.6,6.1,26.6,8.2L306.8,387.9z"/>
	<path d="M358.2,409.2l-1.3-17.7c-8.3,0.6-16.9,0.6-25.2,0l-1.3,17.7c4.5,0.3,9.1,0.5,13.7,0.5C348.9,409.7,353.6,409.6,358.2,409.2
		z"/>
	<path d="M260,369.6c-7.2-4.2-14.2-9-20.8-14.2l-11.1,13.9c7.3,5.8,15,11.1,23,15.7L260,369.6z"/>
	<path d="M190.3,328.7c5.2,7.6,11.1,14.9,17.4,21.7l13-12.1c-5.7-6.1-11-12.7-15.7-19.7L190.3,328.7z"/>
	<path d="M183.1,273.4l-16.9,5.3c2.7,8.8,6.2,17.6,10.2,25.9l16-7.7C188.7,289.3,185.6,281.4,183.1,273.4z"/>
	<path d="M468.3,109.2l13-12c-6.3-6.8-13.1-13.2-20.3-19L449.9,92C456.5,97.3,462.7,103,468.3,109.2z"/>
	<path d="M429.2,77.8l8.9-15.3c-8-4.7-16.4-8.8-25-12.2l-6.5,16.5C414.3,69.8,421.9,73.5,429.2,77.8z"/>
	<path d="M496.6,150.7l16-7.7c-4-8.3-8.7-16.5-13.9-24.1l-14.7,10C488.7,135.8,493,143.2,496.6,150.7z"/>
	<path d="M511.2,249l17.5,2.7c1.4-9.1,2.1-18.4,2.1-27.7h-17.7C513,232.3,512.4,240.7,511.2,249z"/>
	<path d="M382.5,59.3l4-17.3c-9-2.1-18.2-3.5-27.5-4.2l-1.4,17.7C366,56.1,374.4,57.4,382.5,59.3z"/>
	<path d="M385.7,405.2c9-2,18-4.8,26.6-8.2l-6.5-16.5c-7.8,3.1-15.9,5.5-24.1,7.4L385.7,405.2z"/>
	<path d="M437.5,385c8-4.6,15.7-9.9,23-15.7l-11.1-13.9c-6.6,5.2-13.6,10-20.8,14.2L437.5,385z"/>
	<path d="M483.6,318.7c-4.7,6.9-10,13.5-15.7,19.7l13,12.1c6.3-6.8,12.2-14.1,17.4-21.7L483.6,318.7z"/>
	<path d="M496.3,296.9l16,7.7c4-8.3,7.5-17,10.2-25.9l-16.9-5.3C503.1,281.5,499.9,289.4,496.3,296.9z"/>
	<path d="M183,173.5l-16.8-5.5c-2.9,8.8-5.2,17.9-6.7,27l17.5,3C178.4,189.7,180.4,181.5,183,173.5z"/>
	<path d="M510.2,197.9l17.5-3c-1.6-9.1-3.8-18.2-6.7-27l-16.9,5.5C506.7,181.5,508.8,189.7,510.2,197.9z"/>
</g>
<path id="Cumputer" d="M687.5,435.4V57.3c0-31.7-25.6-57.3-57.3-57.3h-550C48.5,0,22.9,25.6,22.9,57.3v378.1H0v57.3
	C0,524.4,25.6,550,57.3,550h595.8c31.7,0,57.3-25.6,57.3-57.3v-57.3H687.5z M687.5,492.7c0,18.9-15.5,34.4-34.4,34.4H57.3
	c-18.9,0-34.4-15.5-34.4-34.4v-34.4h236c16.5,14.8,37.5,22.9,59.9,22.9h72.6c22.3,0,43.4-8.2,59.9-22.9h144.5v-22.9H442.1l-3.3,3.3
	c-12.6,12.6-29.4,19.6-47.3,19.6h-72.6c-17.9,0-34.7-6.9-47.3-19.6l-3.3-3.3H91.7V68.8h132.7c11.6-9,24.2-16.7,37.7-22.9H91.7
	c-12.6,0-22.9,10.3-22.9,22.9v366.7H45.9V57.3c0-18.9,15.5-34.4,34.4-34.4h550c18.9,0,34.4,15.5,34.4,34.4v378.1h-22.9V68.8
	c0-12.6-10.3-22.9-22.9-22.9H426.6c13.5,6.2,26.1,13.9,37.7,22.9h154.5v389.6h68.8L687.5,492.7L687.5,492.7z"/>
</svg>
