<?xml version="1.0" encoding="utf-8"?>
<!-- Generator: Adobe Illustrator 23.0.6, SVG Export Plug-In . SVG Version: 6.00 Build 0)  -->
<svg version="1.1" id="Capa_1" xmlns="http://www.w3.org/2000/svg" xmlns:xlink="http://www.w3.org/1999/xlink" x="0px" y="0px"
	 viewBox="0 0 1840 550" style="enable-background:new 0 0 1840 550;" xml:space="preserve">
<g id="Tete">
    <animateMotion path="M 0 0 V 10 Z" dur="3s" repeatCount="indefinite" />
    <path d="M928.7,204h4.4l31-41.4v-20.7h17.7V71H857.9v71h17.7v20.6h0l31,41.4h4.4 M946.6,156.7l-22.2,29.6h-8.9l-22.2-29.6 v-14.8h53.2v14.8H946.6z"/> 
</g>
<g id="Corps">
	<path d="M1168.4,0H671.6C656.9,0,645,11.9,645,26.6v461.3c0,11.6,7.4,21.3,17.7,25v19.4c0,9.8,8,17.7,17.7,17.7H716
		c9.8,0,17.7-8,17.7-17.7v-17.7h372.6v17.7c0,9.8,8,17.7,17.7,17.7h35.5c9.8,0,17.7-8,17.7-17.7v-19.4c10.3-3.7,17.7-13.4,17.7-25
		V26.6C1195,11.9,1183.1,0,1168.4,0z M716,532.3h-35.5v-17.7H716V532.3z M1159.5,532.3H1124v-17.7h35.5V532.3z M1177.3,487.9
		c0,4.9-4,8.9-8.9,8.9H671.6c-4.9,0-8.9-4-8.9-8.9V26.6c0-4.9,4-8.9,8.9-8.9h496.8c4.9,0,8.9,4,8.9,8.9L1177.3,487.9L1177.3,487.9z"
		/>
	<path d="M680.5,35.5V479h479V35.5H680.5z M698.2,52h443.5v409.3h0.1H698.2 M1141.8,88.7h-142"/>
	<path d="M991,387.3v-91.5l-71-30.4l-71,30.4v91.5l71,30.4L991,387.3z M973.2,375.6l-44.4,19v-60.5l44.4-19V375.6z M920,284.7
		l39.6,17l-39.6,17l-39.6-17L920,284.7z M911.1,394.6l-44.4-19v-60.5l44.4,19V394.6z"/>
	<rect x="831.3" y="425.8" width="177.4" height="17.7"/>
	<rect x="1008.7" y="292.7" width="17.7" height="17.7"/>
	<rect x="1044.2" y="292.7" width="17.7" height="17.7"/>
	<rect x="1079.7" y="292.7" width="17.7" height="17.7"/>
	<rect x="742.6" y="292.7" width="17.7" height="17.7"/>
	<rect x="778.1" y="292.7" width="17.7" height="17.7"/>
	<rect x="813.5" y="292.7" width="17.7" height="17.7"/>
</g>
<g id="Axe">
    <animateMotion path="M 0 0 V 10 Z" dur="3s" repeatCount="indefinite" />
    <polygon points="698.2,106.5 698.2,88.7 1141.8,88.7 1141.7,106.5 "/>
</g>
</svg>
