<?xml version="1.0" encoding="utf-8"?>
<!-- Generator: Adobe Illustrator 23.0.6, SVG Export Plug-In . SVG Version: 6.00 Build 0)  -->
<svg version="1.1" id="Calque_1" xmlns="http://www.w3.org/2000/svg" xmlns:xlink="http://www.w3.org/1999/xlink" x="0px" y="0px"
	 viewBox="0 0 640 278" style="enable-background:new 0 0 640 278;" xml:space="preserve">
<g>
	<path d="M501,0H139C62.2,0,0,62.2,0,139v0c0,76.8,62.2,139,139,139h362c76.8,0,139-62.2,139-139v0C640,62.2,577.8,0,501,0z
		 M606,139c0,58-47,105-105,105h0c-58,0-105-47-105-105v0c0-58,47-105,105-105h0C559,34,606,81,606,139L606,139z"/>
</g>
</svg>
