<?xml version="1.0" encoding="utf-8"?>
<!-- Generator: Adobe Illustrator 18.0.0, SVG Export Plug-In . SVG Version: 6.00 Build 0)  -->
<!DOCTYPE svg PUBLIC "-//W3C//DTD SVG 1.1//EN" "http://www.w3.org/Graphics/SVG/1.1/DTD/svg11.dtd">
<svg version="1.1" id="Calque_1" xmlns="http://www.w3.org/2000/svg" xmlns:xlink="http://www.w3.org/1999/xlink" x="0px" y="0px"
	 viewBox="0 7.2 496 488.8" enable-background="new 0 7.2 496 488.8" xml:space="preserve">
<path d="M48,448h16v16H48V448z"/>
<path d="M80,448h16v16H80V448z"/>
<path d="M112,448h16v16h-16V448z"/>
<path d="M384,448h64v16h-64V448z"/>
<g id="Coding">
	<path d="M336,7.2H160c-22.1,0-40,17.9-40,40v88c0,22.1,17.9,40,40,40h16v48c0,4.4,3.6,8,8,8c2.3,0,4.6-1,6.1-2.8l45.6-53.2H336
		c22.1,0,40-17.9,40-40v-88C376,25.1,358.1,7.3,336,7.2z M336,159.2H232c-2.3,0-4.6,1-6.1,2.8L192,201.6v-34.4c0-4.4-3.6-8-8-8h-24
		c-13.3,0-24-10.7-24-24v-88c0-13.3,10.7-24,24-24h176c13.3,0,24,10.7,24,24v88C360,148.5,349.3,159.2,336,159.2z"/>
	<path d="M104,223.2c0,4.4,3.6,8,8,8h16c4.4,0,8-3.6,8-8s-3.6-8-8-8h-16C107.6,215.2,104,218.8,104,223.2z"/>
	<path d="M128,247.2h-16c-4.4,0-8,3.6-8,8s3.6,8,8,8h16c4.4,0,8-3.6,8-8S132.5,247.2,128,247.2z"/>
	<path d="M128,279.2h-16c-4.4,0-8,3.6-8,8s3.6,8,8,8h16c4.4,0,8-3.6,8-8S132.5,279.2,128,279.2z"/>
	<path d="M128,311.2h-16c-4.4,0-8,3.6-8,8s3.6,8,8,8h16c4.4,0,8-3.6,8-8S132.5,311.2,128,311.2z"/>
	<path d="M128,343.2h-16c-4.4,0-8,3.6-8,8s3.6,8,8,8h16c4.4,0,8-3.6,8-8S132.5,343.2,128,343.2z"/>
	<path d="M232,231.2h152c4.4,0,8-3.6,8-8s-3.6-8-8-8H232c-4.4,0-8,3.6-8,8S227.6,231.2,232,231.2z"/>
	<path d="M224,263.2h128c4.4,0,8-3.6,8-8s-3.6-8-8-8H224c-4.4,0-8,3.6-8,8S219.6,263.2,224,263.2z"/>
	<path d="M160,295.2h96c4.4,0,8-3.6,8-8s-3.6-8-8-8h-96c-4.4,0-8,3.6-8,8S155.6,295.2,160,295.2z"/>
	<path d="M160,327.2h96c4.4,0,8-3.6,8-8s-3.6-8-8-8h-96c-4.4,0-8,3.6-8,8S155.6,327.2,160,327.2z"/>
	<path d="M160,359.2h96c4.4,0,8-3.6,8-8s-3.6-8-8-8h-96c-4.4,0-8,3.6-8,8S155.6,359.2,160,359.2z"/>
	<path d="M155.6,93.9l48,32c3.7,2.5,8.6,1.5,11.1-2.2c2.5-3.7,1.5-8.6-2.2-11.1L176,88.2l35.7-17.8c4-2,5.6-6.8,3.6-10.7
		c-2-4-6.8-5.6-10.7-3.6l0,0l-48,24c-4,2-5.6,6.8-3.6,10.7C153.5,92.1,154.4,93.1,155.6,93.9L155.6,93.9z"/>
	<path d="M284.5,70.4l35.7,17.8l-36.5,24.4c-3.7,2.5-4.7,7.4-2.2,11.1s7.4,4.7,11.1,2.2l48-32c3.7-2.4,4.7-7.4,2.2-11.1
		c-0.8-1.2-1.8-2.1-3.1-2.7l-48-24c-4-2-8.8-0.4-10.7,3.6C278.9,63.6,280.5,68.5,284.5,70.4L284.5,70.4z"/>
	<path d="M229.3,142.7c4.2,1.5,8.7-0.6,10.2-4.8c0,0,0,0,0,0l32-88c1.7-4.1-0.3-8.8-4.4-10.4c-4.1-1.7-8.8,0.3-10.4,4.4
		c-0.1,0.2-0.1,0.4-0.2,0.5l-32,88C223,136.6,225.1,141.2,229.3,142.7C229.3,142.7,229.3,142.7,229.3,142.7z"/>
	<path d="M160,263.2h32c4.4,0,8-3.6,8-8s-3.6-8-8-8h-32c-4.4,0-8,3.6-8,8S155.6,263.2,160,263.2z"/>
	<path d="M360,287.2c0-4.4-3.6-8-8-8h-64c-4.4,0-8,3.6-8,8s3.6,8,8,8h64C356.5,295.2,360,291.6,360,287.2z"/>
	<path d="M304,311.2h-16c-4.4,0-8,3.6-8,8s3.6,8,8,8h16c4.4,0,8-3.6,8-8S308.5,311.2,304,311.2z"/>
	<path d="M304,343.2h-16c-4.4,0-8,3.6-8,8s3.6,8,8,8h16c4.4,0,8-3.6,8-8S308.5,343.2,304,343.2z"/>
	<line fill="none" x1="376" y1="47.2" x2="376" y2="143.2"/>
</g>
<path d="M480,416V152c0-22.1-17.9-40-40-40h-64v16h64c13.3,0,24,10.7,24,24v264h-16V160c0-8.8-7.2-16-16-16h-48c-4.4,0-8,3.6-8,8v0
	c0,4.4,3.6,8,8,8h48v272h48v24c0,13.3-10.7,24-24,24H40c-13.3,0-24-10.7-24-24v-24h164.8c11.5,10.3,26.2,16,41.8,16h50.7
	c15.6,0,30.3-5.7,41.8-16H416v-16H308.7l-2.3,2.3c-8.7,8.7-20.6,13.7-33,13.7h-50.7c-12.5,0-24.2-4.8-33-13.7l-2.3-2.3H64V160h48
	c4.4,0,8-3.6,8-8v0c0-4.4-3.6-8-8-8H64c-8.8,0-16,7.2-16,16v256H32V152c0-13.3,10.7-24,24-24h64v-16H56c-22.1,0-40,17.9-40,40v264H0
	v40c0,22.1,17.9,40,40,40h416c22.1,0,40-17.9,40-40v-40H480z"/>
</svg>
