<svg id="Logo" xmlns="http://www.w3.org/2000/svg" viewBox="0 0 392 392"><defs><style>.cls-1{fill:#fff;}</style></defs><title>icone</title><circle id="Cercle" cx="196" cy="196" r="196"/><g id="Tracés"><path id="bottomright" class="cls-1" d="M267.54,140.47,117.27,290.73c-4.57,4.58,2.62,11.44,6.86,6.86L274.4,147.33c4.57-4.58-2.29-11.44-6.86-6.86Z"/><path id="bottomleft" class="cls-1" d="M117.6,147,267.87,297.27c4.57,4.57,11.43-2.62,6.86-6.86L124.46,140.14c-4.57-4.25-11.43,2.61-6.86,6.86Z"/><path id="topright" class="cls-1" d="M192.41,72.19c50,50,100.28,100,150.26,149.94,4.58,4.58,11.44-2.61,6.86-6.86L199.59,65.33c-4.57-4.57-11.43,2.29-7.18,6.86Z"/><path id="topleft" class="cls-1" d="M192.41,65.33,42.14,215.6c-4.57,4.57,2.61,11.43,6.86,6.86L199.27,72.19c4.57-4.57-2.29-11.43-6.86-6.86Z"/></g></svg>