<?xml version="1.0" encoding="utf-8"?>
<svg version="1.1" id="logo" xmlns="http://www.w3.org/2000/svg" xmlns:xlink="http://www.w3.org/1999/xlink" x="0px" y="0px"
	 viewBox="0 0 170 170" style="enable-background:new 0 0 170 170;" xml:space="preserve">
<style type="text/css">
	.st0{opacity:0.39;}
	.st1{fill-rule:evenodd;clip-rule:evenodd;fill:#0F4C75;}
	.st2{fill:none;stroke:#0F4C75;stroke-width:2;stroke-miterlimit:10;}
	.st3{fill:none;stroke:#0F4C75;stroke-linecap:round;stroke-miterlimit:10;}
</style>
<g id="background" class="st0">
	<path id="topdotB" class="st1" d="M75.9,56.3c-1.8,0-3.1,1.5-3.1,3.3s1.5,3.1,3.5,3.1c1.8,0,3.1-1.3,3.1-3.3
		C79.1,57.6,77.9,56.3,75.9,56.3z"/>
	<path id="bottomdotB" class="st1" d="M94,116.5c1.8,0,3.1-1.5,3.1-3.3s-1.5-3.1-3.5-3.1c-1.8,0-3.1,1.3-3.1,3.3
		C90.7,115.2,91.9,116.5,94,116.5z"/>
	<path id="pythonB" class="st1" d="M103.3,31.2c-29.8-10.1-62,5.9-72,35.5c-10.1,29.8,5.9,62,35.5,72c29.8,10.1,62-5.9,72-35.5
		C148.8,73.7,132.9,41.5,103.3,31.2z M65.4,95.1c0,2.6,0,5.3,0,7.9c0,0.4-0.4,0.9-0.5,0.9c-2,0-4.2,0.2-6.2,0
		c-2.9-0.4-4.9-2.2-6.2-4.6c-1.8-3.1-2.4-6.6-2.6-10.1c0-1.8-0.2-3.5,0-5.3c0.5-5.3,1.6-10.2,6.9-13c0.9-0.4,2-0.7,2.9-0.7
		C67.8,70,76,70,84.1,70c1.1,0,1.3-0.5,1.3-1.6s-0.4-1.3-1.3-1.3c-4.8,0-9.5,0-14.4,0c-1.6,0-1.6,0-1.6-1.6s0.2-3.5,0-5.1
		c-0.2-3.3,1.6-5.3,4.4-6.8c2.9-1.5,6-1.6,9-2c4-0.5,8-0.2,12.1,0.7c2.9,0.5,5.7,1.6,7.5,4.2c0.9,1.1,1.3,2.4,1.3,3.8
		c0,5.3,0,10.4,0,15.7c0,6.6-4.6,9.1-9.1,9.3c-2.9,0.2-6,0-9,0l0,0c-2.9,0-5.9,0-8.6,0C69.5,85.4,65.4,89.4,65.4,95.1z M120.1,88.8
		c-0.5,5.3-1.6,10.2-6.9,13c-0.9,0.4-2,0.7-2.9,0.7c-8,0.2-16.3,0.2-24.3,0.2c-1.1,0-1.3,0.5-1.3,1.6s0.4,1.3,1.3,1.3
		c4.8,0,9.5,0,14.4,0c1.6,0,1.6,0,1.6,1.6s-0.2,3.5,0,5.1c0.2,3.3-1.6,5.3-4.4,6.8c-2.9,1.5-6,1.6-9,2c-4,0.5-8,0.2-12.1-0.7
		c-2.9-0.5-5.7-1.6-7.5-4.2c-0.9-1.1-1.3-2.4-1.3-3.8c0-5.3,0-10.4,0-15.7c0-6.6,4.6-9.1,9.1-9.3c2.9-0.2,6,0,9,0l0,0
		c2.9,0,5.9,0,8.6,0c5.7,0,9.7-4,9.7-9.7c0-2.6,0-5.3,0-7.9c0-0.4,0.4-0.9,0.5-0.9c2,0,4.2-0.2,6.2,0c2.9,0.4,4.9,2.2,6.2,4.6
		c1.8,3.1,2.4,6.6,2.6,10.1C120.1,85.4,120.1,87.2,120.1,88.8z"/>
</g>
<g id="python">
	<path id="circleBottom" class="st2" d="M85,141.7c34.1,0,56.9-29.3,56.8-55.8c0-26.7-17.6-49.6-41.9-55.8"/>
	<path id="circleTop" class="st2" d="M85.1,28.2C51,28.2,28.2,57.5,28.3,84c0,26.7,17.6,49.6,41.9,55.8"/>
	<path id="pythonBottom" class="st3" d="M84.9,170v-44.8c0-2,1.5-3.7,3.5-3.9c2.8-0.3,5.8-1,8.8-1.9c2.4-0.9,4.2-2.6,4.8-6.1v-6.1
		c0-0.8-0.6-1.4-1.4-1.4H86c-0.8,0-1.4-0.6-1.4-1.4l0,0c0-0.8,0.6-1.4,1.4-1.4h23.6c7.2-1.4,10.7-6.9,10.5-16.6
		c-0.3-11.8-3.9-17.2-10-17.4h-4.2c-0.8,0-1.4,0.6-1.4,1.4l-0.1,8.6c-1.1,5.3-4,8.1-9,8.5H76.9c-5.4,0.4-8.4,3-9.1,7.8l-0.1,17.3
		c0.1,1.5,0.5,2.8,1.4,4c1.4,1.9,4,2.6,6.3,1.8c2.8-1,7.2-2.4,10.5-3.5c2-0.6,4.2-0.3,5.9,0.9c0.6,0.5,1.4,0.7,2.1,0.7
		c1.6,0,3.2-1.2,3.1-3.2s-1.7-3.2-3.5-3.2c-1.7,0-2.7,1.2-2.9,2"/>
	<path id="pythonTop" class="st3" d="M85.1,0v47.5c0,2-1.5,3.7-3.5,3.9c-2.8,0.3-5.8,1-8.8,1.9c-2.4,0.9-4.2,2.6-4.8,6.1v6.1
		c0,0.8,0.6,1.4,1.4,1.4H84c0.8,0,1.4,0.6,1.4,1.4l0,0c0,0.8-0.6,1.4-1.4,1.4H60.3c-7.2,1.4-10.7,6.9-10.5,16.6
		c0.3,11.8,3.9,17.2,10,17.4H64c0.8,0,1.4-0.6,1.4-1.4l0.1-8.6c1.1-5.3,4-8.1,9-8.5H93c5.4-0.4,8.4-3,9.1-7.8l0.1-17.3
		c-0.1-1.7-0.7-3.3-1.9-4.6c-1.4-1.6-3.7-2.1-5.8-1.4L84,57.8c-2.1,0.7-4.3,0.2-6.1-1c-0.5-0.4-1.2-0.5-2-0.5
		c-1.9,0-3.1,1.5-3.1,3.3s1.4,3,3.2,3.1c1.5,0,2.6-0.5,3-1.6"/>
</g>
</svg>
