<?xml version="1.0" encoding="utf-8"?>
<svg version="1.1" id="modeling" xmlns="http://www.w3.org/2000/svg" xmlns:xlink="http://www.w3.org/1999/xlink" x="0px" y="0px"
	 viewBox="0 0 520 407.1" style="enable-background:new 0 0 520 407.1;" xml:space="preserve">
<g id="lights">
	<path id="leftLight_2_" d="M61.8,348.8H71c1.9,0,3.4,1.5,3.4,3.4v9.1c0,1.9-1.5,3.4-3.4,3.4h-9.1c-1.9,0-3.4-1.5-3.4-3.4v-9.1
		C58.4,350.3,59.9,348.8,61.8,348.8z"/>
	<path id="leftLight_1_" d="M94.1,348.8h9.1c1.9,0,3.4,1.5,3.4,3.4v9.1c0,1.9-1.5,3.4-3.4,3.4h-9.1c-1.9,0-3.4-1.5-3.4-3.4v-9.1
		C90.7,350.3,92.2,348.8,94.1,348.8z"/>
	<path id="leftLight" d="M126.3,348.8h9.1c1.9,0,3.4,1.5,3.4,3.4v9.1c0,1.9-1.5,3.4-3.4,3.4h-9.1c-1.9,0-3.4-1.5-3.4-3.4v-9.1
		C122.9,350.3,124.4,348.8,126.3,348.8z"/>
	<path id="rightLight" d="M400.6,348.8h57.6c1.9,0,3.4,1.5,3.4,3.4v9.1c0,1.9-1.5,3.4-3.4,3.4h-57.6c-1.9,0-3.4-1.5-3.4-3.4v-9.1
		C397.1,350.3,398.7,348.8,400.6,348.8z"/>
</g>
<g id="dots">
	<path d="M176.1,60.3l-3.9-4.9c-1.1-1.3-3.1-1.5-4.4-0.4c-3.4,2.9-6.6,5.9-9.7,9.1c-1.2,1.3-1.1,3.2,0.1,4.4l4.6,4.3
		c1.2,1.1,3.1,1.1,4.3-0.1c2.7-2.8,5.6-5.5,8.6-8C176.9,63.5,177.2,61.6,176.1,60.3z"/>
	<path d="M207.4,42.1l-2.3-5.8c-0.6-1.6-2.5-2.4-4.1-1.7c-4.1,1.7-8,3.7-11.9,5.8c-1.5,0.8-2,2.7-1.2,4.3l3.2,5.4
		c0.8,1.5,2.7,2,4.2,1.1c3.4-1.9,6.9-3.6,10.6-5.1C207.3,45.4,208.1,43.7,207.4,42.1z"/>
	<path d="M151.5,87l-5.3-3.6c-1.4-1-3.4-0.6-4.4,0.9c-2.4,3.7-4.6,7.5-6.6,11.5c-0.8,1.5-0.1,3.4,1.4,4.2l5.7,2.7
		c1.5,0.7,3.3,0.1,4.1-1.3c1.8-3.4,3.8-6.9,5.9-10.2C153.3,89.8,152.9,87.9,151.5,87z"/>
	<path d="M130.6,155.5h-6.3c-1.8,0-3.2,1.4-3.1,3.2c0.1,4.4,0.4,8.8,1,13.2c0.2,1.8,1.8,3,3.5,2.7l6.2-1c1.6-0.3,2.8-1.8,2.6-3.4
		c-0.5-3.8-0.8-7.7-0.8-11.6C133.6,156.9,132.2,155.5,130.6,155.5z"/>
	<path d="M242.8,34l-0.5-6.3c-0.1-1.8-1.7-3-3.4-2.8c-4.4,0.4-8.8,1.1-13.1,2c-1.7,0.4-2.8,2-2.4,3.7l1.4,6.2c0.4,1.6,2,2.7,3.6,2.3
		c3.8-0.8,7.7-1.3,11.6-1.8C241.6,37.1,242.8,35.7,242.8,34z"/>
	<path d="M223,270.3c-3.8-0.9-7.5-2.1-11.2-3.4c-1.5-0.6-3.3,0.2-3.9,1.8l-2.3,5.8c-0.6,1.6,0.2,3.4,1.8,4c4.2,1.5,8.4,2.8,12.7,3.9
		c1.7,0.4,3.4-0.6,3.8-2.3l1.4-6.1C225.7,272.4,224.6,270.7,223,270.3z"/>
	<path d="M261.9,282.9l-0.5-6.3c-0.1-1.7-1.5-3-3.2-2.9c-3.9,0.2-7.9,0.2-11.8,0c-1.7-0.1-3.1,1.2-3.2,2.9l-0.5,6.3
		c-0.1,1.8,1.2,3.2,3,3.3c2.2,0.1,4.3,0.1,6.5,0.1c2.3,0,4.6,0,6.8-0.1C260.7,286.1,262,284.6,261.9,282.9z"/>
	<path d="M190.5,256.6c-3.3-2-6.5-4.3-9.7-6.6c-1.3-1-3.2-0.8-4.3,0.6l-3.9,5c-1.1,1.3-0.8,3.4,0.6,4.4c3.5,2.7,7.2,5.2,11,7.5
		c1.5,0.9,3.4,0.4,4.3-1.1l3.2-5.5C192.3,259.3,191.9,257.5,190.5,256.6z"/>
	<path d="M145.8,232c2.6,3.6,5.3,7,8.3,10.3c1.1,1.3,3.2,1.4,4.4,0.2l4.6-4.3c1.2-1.1,1.3-3,0.2-4.3c-2.6-2.9-5-6-7.3-9.1
		c-1-1.3-2.9-1.7-4.2-0.8l-5.2,3.6C145.1,228.6,144.7,230.5,145.8,232z"/>
	<path d="M135.9,191.3l-6,1.9c-1.7,0.5-2.6,2.3-2,3.9c1.4,4.2,3,8.3,4.9,12.3c0.7,1.6,2.6,2.3,4.2,1.5l5.6-2.7
		c1.5-0.7,2.2-2.5,1.5-4.1c-1.6-3.6-3-7.2-4.3-10.9C139.3,191.7,137.5,190.9,135.9,191.3z"/>
	<path d="M341.9,72.7l4.6-4.2c1.3-1.2,1.3-3.2,0.1-4.4c-3.1-3.2-6.3-6.2-9.6-9c-1.3-1.1-3.3-0.9-4.4,0.4l-3.9,4.9
		c-1.1,1.3-0.8,3.2,0.4,4.3c3,2.5,5.8,5.2,8.6,8C338.7,73.9,340.7,73.9,341.9,72.7z"/>
	<path d="M313.6,50.1l3.2-5.4c0.8-1.5,0.4-3.4-1.2-4.3c-3.9-2.1-7.8-4.1-11.9-5.8c-1.6-0.7-3.4,0.1-4.1,1.7l-2.3,5.8
		c-0.6,1.5,0.1,3.3,1.7,3.9c3.6,1.5,7,3.2,10.5,5.1C311,52.1,312.8,51.6,313.6,50.1z"/>
	<path d="M362.3,102.7l5.7-2.7c1.5-0.8,2.2-2.7,1.4-4.2c-2-3.9-4.2-7.8-6.6-11.5c-0.9-1.5-2.9-1.8-4.4-0.8l-5.2,3.6
		c-1.4,0.9-1.8,2.8-0.8,4.2c2.1,3.3,4.1,6.7,5.8,10.1C359,102.9,360.8,103.5,362.3,102.7z"/>
	<path d="M372.8,173.7l6.3,1c1.7,0.3,3.3-0.9,3.5-2.7c0.6-4.4,0.9-8.7,1-13.2c0.1-1.8-1.3-3.2-3.1-3.2h-6.3c-1.7,0-3,1.3-3.1,3
		c-0.1,3.9-0.4,7.8-0.9,11.7C370,172,371.1,173.5,372.8,173.7z"/>
	<path d="M279.9,36.8l1.4-6.1c0.4-1.7-0.7-3.4-2.4-3.7c-4.3-0.9-8.7-1.5-13.1-2c-1.8-0.1-3.2,1.1-3.4,2.8L262,34
		c-0.1,1.7,1.1,3.2,2.7,3.3c3.9,0.4,7.7,1,11.6,1.8C277.9,39.5,279.5,38.4,279.9,36.8z"/>
	<path d="M284.6,282.5c4.3-1.1,8.5-2.4,12.7-3.9c1.6-0.6,2.5-2.4,1.8-4l-2.3-5.8c-0.6-1.5-2.3-2.3-3.9-1.8
		c-3.7,1.3-7.5,2.5-11.3,3.4c-1.6,0.4-2.6,2-2.3,3.7l1.4,6.2C281.2,281.9,282.9,282.9,284.6,282.5z"/>
	<path d="M320.7,267.4c3.7-2.3,7.4-4.8,11-7.5c1.4-1.1,1.6-3,0.6-4.4l-3.9-5c-1.1-1.3-3-1.5-4.3-0.6c-3.2,2.3-6.4,4.6-9.7,6.6
		c-1.4,0.8-1.9,2.7-1.1,4.2l3.2,5.5C317.2,267.8,319.2,268.3,320.7,267.4z"/>
	<path d="M348.6,224.8c-2.3,3.2-4.7,6.2-7.3,9.1c-1.1,1.3-1,3.2,0.2,4.3l4.6,4.3c1.3,1.2,3.2,1.1,4.4-0.2c3-3.3,5.7-6.8,8.3-10.3
		c1-1.4,0.7-3.4-0.8-4.4l-5.3-3.6C351.5,223.1,349.6,223.4,348.6,224.8z"/>
	<path d="M362.1,208.3l5.7,2.7c1.5,0.8,3.4,0.1,4.2-1.5c1.8-4,3.4-8.2,4.9-12.4c0.6-1.6-0.4-3.4-2-3.9l-6-1.9
		c-1.6-0.5-3.3,0.4-3.9,2c-1.3,3.7-2.7,7.4-4.4,11C359.9,205.8,360.6,207.5,362.1,208.3z"/>
	<path d="M135.9,119.2l-6-2c-1.6-0.6-3.4,0.4-3.9,2c-1.3,4.2-2.4,8.6-3.2,12.9c-0.4,1.7,0.8,3.3,2.5,3.7l6.3,1.1
		c1.6,0.3,3.2-0.8,3.5-2.5c0.8-3.9,1.7-7.7,2.8-11.5C138.4,121.4,137.5,119.7,135.9,119.2z"/>
	<path d="M372.1,136.8l6.2-1.1c1.7-0.3,2.8-2,2.5-3.7c-0.8-4.3-1.9-8.7-3.2-12.9c-0.5-1.7-2.3-2.6-3.9-2l-6.1,2
		c-1.6,0.5-2.5,2.2-2,3.8c1.1,3.8,2.1,7.6,2.9,11.4C368.9,136,370.4,137.1,372.1,136.8z"/>
</g>
<path id="cube" d="M344.6,107.1L266,67.8c-0.6-0.3-1.3-0.4-1.8-0.1l-104.1,39c-0.9,0.4-1.5,1.2-1.5,2.1v46.4v46.2
	c0,0.8,0.5,1.7,1.3,2l78.6,39.3c0.6,0.3,1.3,0.4,1.8,0.1l104.1-39c0.9-0.4,1.5-1.2,1.5-2.1v-46.4v-46.2
	C345.9,108.3,345.4,107.5,344.6,107.1z M274.2,85.9l45,22.5c1.8,0.9,1.6,3.5-0.2,4.2l-45,16.9c-1.5,0.6-3.1-0.6-3.1-2.1V88
	C270.9,86.2,272.7,85.1,274.2,85.9z M247.4,152.8l7.9-3c1.5-0.6,3.1,0.6,3.1,2.1v3.6c0,1-0.6,1.8-1.5,2.1l-7.9,3
	c-1.5,0.6-3.1-0.6-3.1-2.1v-3.6C245.9,154,246.5,153.1,247.4,152.8z M258.5,86.4v47.3c0,1-0.6,1.8-1.5,2.1l-16,6
	c-0.6,0.2-1.3,0.2-1.8-0.1l-54.1-27c-1.8-0.9-1.6-3.5,0.2-4.2l70-26.3C256.8,83.7,258.5,84.8,258.5,86.4z M230.2,224.6l-45-22.5
	c-1.8-0.9-1.6-3.5,0.2-4.2l45-16.9c1.5-0.6,3.1,0.6,3.1,2.1v39.4C233.5,224.4,231.7,225.4,230.2,224.6z M171,186.7v-61.2
	c0-1.7,1.8-2.8,3.3-2l57.9,28.9c0.8,0.4,1.3,1.2,1.3,2V165c0,1-0.6,1.8-1.5,2.1l-57.9,21.7C172.7,189.4,171,188.3,171,186.7z
	 M245.9,224.1v-47.3c0-1,0.6-1.8,1.5-2.1l16-6c0.6-0.2,1.3-0.2,1.8,0.1l54.1,27c1.8,0.9,1.6,3.5-0.2,4.2l-70,26.3
	C247.5,226.8,245.9,225.8,245.9,224.1z M270.9,156.2v-10.6c0-1,0.6-1.8,1.5-2.1l57.9-21.7c1.5-0.6,3.1,0.6,3.1,2.1v61.2
	c0,1.7-1.8,2.8-3.3,2l-57.9-28.9C271.4,157.8,270.9,157.1,270.9,156.2z"/>
<path d="M-16.8,119.6"/>
<path d="M503.2,317h-9.6c-1.8,0-3.2-1.4-3.2-3.2V56.2c0-23.9-19.3-43.2-43.2-43.2l-144.5,0c11.4,4.1,22.1,9.4,32,16h112.4
	c15,0,27.2,12.2,27.2,27.2v257.6c0,1.8-1.4,3.2-3.2,3.2h-9.6c-1.8,0-3.2-1.4-3.2-3.2V64.2c0-10.6-8.6-19.2-19.2-19.2H355
	c5.3,5,10.2,10.3,14.8,16H439c1.8,0,3.2,1.4,3.2,3.2v265.6c0,1.8,1.4,3.2,3.2,3.2H487c1.8,0,3.2,1.4,3.2,3.2v17.6
	c0,15-12.2,27.2-27.2,27.2H53.6c-15,0-27.2-12.2-27.2-27.2v-17.6c0-1.8,1.4-3.2,3.2-3.2H190c0.8,0,1.5,0.3,2.1,0.8
	c11.4,9.8,25.7,15.2,40.9,15.2h50.7c15.2,0,29.5-5.4,40.9-15.2c0.6-0.5,1.3-0.8,2.1-0.8h96.4c1.8,0,3.2-1.4,3.2-3.2v-9.6
	c0-1.8-1.4-3.2-3.2-3.2H320.4c-0.8,0-1.7,0.3-2.3,0.9l-0.5,0.5c-9.3,9.3-22,14.6-35.2,14.6H233c-12.5,0-24.2-4.8-33-13.7l-1.4-1.4
	c-0.6-0.6-1.4-0.9-2.3-0.9H77.6c-1.8,0-3.2-1.4-3.2-3.2V64.2c0-1.8,1.4-3.2,3.2-3.2h57.2c4.5-5.6,9.4-11,14.7-15.9H77.6
	c-10.6,0-19.2,8.6-19.2,19.2v249.6c0,1.8-1.4,3.2-3.2,3.2h-9.6c-1.8,0-3.2-1.4-3.2-3.2V56.2c0-15,12.2-27.2,27.2-27.2h100.3
	c9.9-6.5,20.6-11.9,31.9-15.9l-132.1,0c-24-0.1-43.3,19.2-43.3,43.1v257.6c0,1.8-1.4,3.2-3.2,3.2h-9.6c-1.8,0-3.2,1.4-3.2,3.2v33.6
	c0,23.9,19.3,43.2,43.2,43.2h409.6c23.9,0,43.2-19.3,43.2-43.2v-33.6C506.4,318.4,505,317,503.2,317z"/>
</svg>
