<?xml version="1.0" encoding="utf-8"?>
<svg version="1.1" id="print" xmlns="http://www.w3.org/2000/svg" xmlns:xlink="http://www.w3.org/1999/xlink" x="0px" y="0px"
	 viewBox="0 0 520 520.1" style="enable-background:new 0 0 520 520.1;" xml:space="preserve">
<g id="axe">
	<rect id="leftAxe" x="58.3" y="90.7" width="145.2" height="16.2"/>
	<polygon id="rightAxe" points="316.3,90.7 461.7,90.7 461.6,106.8 316.3,106.8 	"/>
</g>
<path id="head" d="M267.9,195.5h2.4c1.1,0,2-0.4,2.6-1.4l26.6-35.5c0.4-0.5,0.6-1.3,0.6-2v-14.4c0-1.8,1.5-3.4,3.4-3.4h9.5
	c1.8,0,3.4-1.5,3.4-3.4V77.9c0-1.8-1.5-3.4-3.4-3.4h-106c-1.8,0-3.4,1.5-3.4,3.4v57.9c0,1.8,1.5,3.4,3.4,3.4h9.4
	c1.8,0,3.4,1.5,3.4,3.4v15.3l0,0l27.2,36.3c0.6,0.8,1.6,1.4,2.6,1.4h2.4L267.9,195.5z M284.2,152.5L265,178
	c-0.6,0.8-1.6,1.4-2.6,1.4h-4.7c-1.1,0-2-0.4-2.6-1.4l-18.7-24.7c-0.4-0.5-0.6-1.3-0.6-2v-9c0-1.8,1.5-3.4,3.4-3.4h41.7
	c1.8,0,3.4,1.5,3.4,3.4L284.2,152.5L284.2,152.5L284.2,152.5z"/>
<g id="shell">
	<path id="externalshell" d="M485.9,10H34.2C20.8,10,10,20.8,10,34.2v419.4c0,10.5,6.7,19.4,16.1,22.7v17.6
		c0,8.9,7.3,16.1,16.1,16.1h32.4c8.9,0,16.1-7.3,16.1-16.1v-16.1h338.8v16.1c0,8.9,7.3,16.1,16.1,16.1h32.3
		c8.9,0,16.1-7.3,16.1-16.1v-17.6c9.3-3.4,16.1-12.2,16.1-22.7V34.2C510,20.8,499.2,10,485.9,10z M74.5,494H42.2v-16.1h32.3V494z
		 M477.8,494h-32.3v-16.1h32.3V494z M493.9,453.6c0,4.5-3.6,8.1-8.1,8.1H34.2c-4.5,0-8.1-3.6-8.1-8.1V34.2c0-4.5,3.6-8.1,8.1-8.1
		h451.7c4.5,0,8.1,3.6,8.1,8.1V453.6L493.9,453.6z"/>
	<path id="internalShell" d="M42.2,48.6v390.5c0,3.5,2.8,6.4,6.4,6.4h422.8c3.5,0,6.4-2.8,6.4-6.4V48.6c0-3.5-2.8-6.4-6.4-6.4H48.6
		C45.1,42.3,42.2,45.1,42.2,48.6z M58.3,63.7c0-3.6,2.9-6.4,6.4-6.4h390.4c3.5,0,6.4,2.8,6.4,6.4l0.1,359.4c0,3.6-2.9,6.4-6.4,6.4
		H64.8c-3.6,0-6.4-2.9-6.4-6.4C58.3,423,58.3,63.7,58.3,63.7z"/>
	<path id="cube" d="M324.6,359v-77.1c0-1.8-1.1-3.5-2.8-4.3l-59.9-25.5c-1.2-0.5-2.6-0.5-3.7,0l-59.9,25.6c-1.7,0.7-2.8,2.4-2.8,4.3
		v77.1c0,1.8,1.1,3.5,2.8,4.3l59.9,25.6c1.2,0.5,2.6,0.5,3.7,0l59.9-25.6C323.5,362.6,324.6,361,324.6,359z M305.6,352.7L274.7,366
		c-3.1,1.4-6.5-0.9-6.5-4.4v-44.7c0-1.9,1.1-3.5,2.8-4.4l30.9-13.3c3.1-1.4,6.5,0.9,6.5,4.4v44.7C308.4,350.3,307.3,352,305.6,352.7
		z M261.8,269.7l29.4,12.7c1.8,0.7,1.8,3.3,0,4.1L261.8,299c-1.2,0.5-2.6,0.5-3.7,0l-29.4-12.7c-1.8-0.7-1.8-3.3,0-4.1l29.4-12.7
		C259.4,269.1,260.6,269.1,261.8,269.7z M247.8,367.1l-33.5-14.3c-1.7-0.7-2.8-2.5-2.8-4.4v-47.5c0-2.1,2.2-3.5,4.1-2.6l33.5,14.3
		c1.7,0.7,2.8,2.5,2.8,4.4v47.5C251.9,366.4,249.7,367.9,247.8,367.1z"/>
	<path id="support" d="M184.1,397.1h151.8c2.6,0,4.7,2.1,4.7,4.7v6.6c0,2.6-2.1,4.7-4.7,4.7H184.1c-2.6,0-4.7-2.1-4.7-4.7v-6.6
		C179.4,399.3,181.5,397.1,184.1,397.1z"/>
	<path id="dot_5_" d="M345.4,276.1h6.6c2.6,0,4.7,2.1,4.7,4.7v6.6c0,2.6-2.1,4.7-4.7,4.7h-6.6c-2.6,0-4.7-2.1-4.7-4.7v-6.6
		C340.6,278.2,342.8,276.1,345.4,276.1z"/>
	<path id="dot_4_" d="M377.6,276.1h6.6c2.6,0,4.7,2.1,4.7,4.7v6.6c0,2.6-2.1,4.7-4.7,4.7h-6.6c-2.6,0-4.7-2.1-4.7-4.7v-6.6
		C372.9,278.2,375,276.1,377.6,276.1z"/>
	<path id="dot_3_" d="M409.9,276.1h6.6c2.6,0,4.7,2.1,4.7,4.7v6.6c0,2.6-2.1,4.7-4.7,4.7h-6.6c-2.6,0-4.7-2.1-4.7-4.7v-6.6
		C405.2,278.2,407.3,276.1,409.9,276.1z"/>
	<path id="dot_2_" d="M103.5,276.1h6.6c2.6,0,4.7,2.1,4.7,4.7v6.6c0,2.6-2.1,4.7-4.7,4.7h-6.6c-2.6,0-4.7-2.1-4.7-4.7v-6.6
		C98.7,278.2,100.8,276.1,103.5,276.1z"/>
	<path id="dot_1_" d="M135.7,276.1h6.6c2.6,0,4.7,2.1,4.7,4.7v6.6c0,2.6-2.1,4.7-4.7,4.7h-6.6c-2.6,0-4.7-2.1-4.7-4.7v-6.6
		C131,278.2,133.1,276.1,135.7,276.1z"/>
	<path id="dot" d="M167.9,276.1h6.6c2.6,0,4.7,2.1,4.7,4.7v6.6c0,2.6-2.1,4.7-4.7,4.7h-6.6c-2.6,0-4.7-2.1-4.7-4.7v-6.6
		C163.2,278.2,165.3,276.1,167.9,276.1z"/>
</g>
</svg>
