<?xml version="1.0" encoding="utf-8"?>
<svg version="1.1" id="python" xmlns="http://www.w3.org/2000/svg" xmlns:xlink="http://www.w3.org/1999/xlink" x="0px" y="0px"
	 viewBox="0 0 520 516" style="enable-background:new 0 0 520 516;" xml:space="preserve">
<g id="lights">
	<path id="leftLight_2_" d="M64.6,458h6.8c2.5,0,4.6,2.1,4.6,4.6v6.8c0,2.5-2.1,4.6-4.6,4.6h-6.8c-2.5,0-4.6-2.1-4.6-4.6v-6.8
		C60,460.1,62.1,458,64.6,458z"/>
	<path id="leftLight_1_" d="M96.6,458h6.8c2.5,0,4.6,2.1,4.6,4.6v6.8c0,2.5-2.1,4.6-4.6,4.6h-6.8c-2.5,0-4.6-2.1-4.6-4.6v-6.8
		C92,460.1,94.1,458,96.6,458z"/>
	<path id="leftLight" d="M128.6,458h6.8c2.5,0,4.6,2.1,4.6,4.6v6.8c0,2.5-2.1,4.6-4.6,4.6h-6.8c-2.5,0-4.6-2.1-4.6-4.6v-6.8
		C124,460.1,126.1,458,128.6,458z"/>
	<path id="rightLight" d="M400.6,458h54.8c2.5,0,4.6,2.1,4.6,4.6v6.8c0,2.5-2.1,4.6-4.6,4.6h-54.8c-2.5,0-4.6-2.1-4.6-4.6v-6.8
		C396,460.1,398.1,458,400.6,458z"/>
</g>
<path id="dots_x5F_middle" d="M404,346c-4.9,0-9.5,1.5-13.3,4l-27.9-20.9c0.7-2.3,1.2-4.6,1.2-7.1c0-13.2-10.8-24-24-24
	s-24,10.8-24,24c0,2.8,0.6,5.4,1.4,7.8l-44.8,35.8c-3.7-2.3-8-3.7-12.6-3.7c-5.4,0-10.3,1.8-14.3,4.8l-34.5-23
	c0.5-1.9,0.8-3.8,0.8-5.8c0-13.2-10.8-24-24-24s-24,10.8-24,24c0,2,0.3,4,0.8,5.8l-34.5,23c-4-3-8.9-4.8-14.3-4.8
	c-13.2,0-24,10.8-24,24s10.8,24,24,24s24-10.8,24-24c0-2-0.3-4-0.8-5.8l34.5-23c4,3,8.9,4.8,14.3,4.8s10.3-1.8,14.3-4.8l34.5,23
	c-0.5,1.9-0.8,3.8-0.8,5.8c0,13.2,10.8,24,24,24c13.2,0,24-10.8,24-24c0-2.8-0.6-5.4-1.4-7.8l44.8-35.8c3.7,2.3,8,3.7,12.6,3.7
	c4.9,0,9.5-1.5,13.3-4l27.9,20.9c-0.7,2.3-1.2,4.6-1.2,7.1c0,13.2,10.8,24,24,24s24-10.8,24-24S417.2,346,404,346z M116,394
	c-4.4,0-8-3.6-8-8s3.6-8,8-8s8,3.6,8,8S120.4,394,116,394z M188,346c-4.4,0-8-3.6-8-8s3.6-8,8-8s8,3.6,8,8S192.4,346,188,346z
	 M260,394c-4.4,0-8-3.6-8-8s3.6-8,8-8s8,3.6,8,8S264.4,394,260,394z M340,330c-4.4,0-8-3.6-8-8s3.6-8,8-8s8,3.6,8,8
	S344.4,330,340,330z M404,378c-4.4,0-8-3.6-8-8s3.6-8,8-8s8,3.6,8,8S408.4,378,404,378z"/>
<path id="dotTop" d="M240,266h8c2.2,0,4,1.8,4,4v8c0,2.2-1.8,4-4,4h-8c-2.2,0-4-1.8-4-4v-8C236,267.8,237.8,266,240,266z"/>
<path id="lineTop_1_" d="M272,266h152c2.2,0,4,1.8,4,4v8c0,2.2-1.8,4-4,4H272c-2.2,0-4-1.8-4-4v-8C268,267.8,269.8,266,272,266z"/>
<path id="shell" d="M504.8,426h-9.6c-1.8,0-3.2-1.4-3.2-3.2V165.2c0-23.9-19.3-43.2-43.2-43.2h-6.2c-2.9,0-5.3,2.3-5.5,5.3
	c-0.1,1.6-0.2,3.2-0.3,4.8c-0.3,3.2,2.3,5.9,5.4,5.9h6.5c15,0,27.2,12.2,27.2,27.2v257.6c0,1.8-1.4,3.2-3.2,3.2h-9.6
	c-1.8,0-3.2-1.4-3.2-3.2V173.2c0-10.6-8.6-19.2-19.2-19.2H437c-2.4,0-4.5,1.6-5.2,3.8c-0.5,1.7-1.1,3.3-1.6,4.9
	c-1.3,3.6,1.3,7.3,5.1,7.3h5.3c1.8,0,3.2,1.4,3.2,3.2v265.6c0,1.8,1.4,3.2,3.2,3.2h41.6c1.8,0,3.2,1.4,3.2,3.2v17.6
	c0,15-12.2,27.2-27.2,27.2H55.2c-15,0-27.2-12.2-27.2-27.2v-17.6c0-1.8,1.4-3.2,3.2-3.2h160.4c0.8,0,1.5,0.3,2.1,0.8
	c11.4,9.8,25.7,15.2,40.9,15.2h50.7c15.2,0,29.5-5.4,40.9-15.2c0.6-0.5,1.3-0.8,2.1-0.8h96.4c1.8,0,3.2-1.4,3.2-3.2v-9.6
	c0-1.8-1.4-3.2-3.2-3.2H322c-0.8,0-1.7,0.3-2.3,0.9l-0.5,0.5c-9.3,9.3-22,14.6-35.2,14.6h-49.4c-12.5,0-24.2-4.8-33-13.7l-1.4-1.4
	c-0.6-0.6-1.4-0.9-2.3-0.9H79.2c-1.8,0-3.2-1.4-3.2-3.2V173.2c0-1.8,1.4-3.2,3.2-3.2h117.4c3.8,0,6.4-3.8,5.1-7.3
	c-0.6-1.6-1.1-3.2-1.6-4.8c-0.7-2.3-2.8-3.8-5.2-3.8H79.2c-10.6,0-19.2,8.6-19.2,19.2v249.6c0,1.8-1.4,3.2-3.2,3.2h-9.6
	c-1.8,0-3.2-1.4-3.2-3.2V165.2c0-15,12.2-27.2,27.2-27.2h118.5c3.2,0,5.7-2.7,5.4-5.9c-0.1-1.6-0.2-3.1-0.3-4.7
	c-0.1-2.9-2.5-5.3-5.5-5.3h-118C47.3,122,28,141.3,28,165.2v257.6c0,1.8-1.4,3.2-3.2,3.2h-9.6c-1.8,0-3.2,1.4-3.2,3.2v33.6
	c0,23.9,19.3,43.2,43.2,43.2h409.6c23.9,0,43.2-19.3,43.2-43.2v-33.6C508,427.4,506.6,426,504.8,426z"/>
<path id="circle" d="M317,10c-62.7-0.5-113.5,50.3-113,113c0.5,60.8,50.2,110.5,111,111c62.7,0.5,113.5-50.3,112.9-112.9
	C427.5,60.2,377.8,10.5,317,10z M316,26c47.4,0,86.8,34.4,94.6,79.6c0.8,4.5-2.7,8.6-7.2,8.6h-78c-2.6,0-5-1.4-6.4-3.7l-39.4-68.3
	c-2.3-4-0.4-9,3.9-10.6C293.6,28,304.6,26,316,26z M220,122c0-29.9,13.6-56.5,35-74.1c3.5-2.9,8.8-1.9,11,2l39.5,68.5
	c1.3,2.3,1.3,5.1,0,7.3L266,194.2c-2.3,3.9-7.5,4.9-11,2C233.7,178.5,220,151.9,220,122z M316,218c-11.4,0-22.4-2-32.6-5.7
	c-4.3-1.6-6.2-6.6-3.9-10.6l39.4-68.3c1.3-2.3,3.7-3.7,6.4-3.7h78c4.6,0,8,4.1,7.2,8.6C402.8,183.6,363.4,218,316,218z"/>
<g id="panelTop">
	<path id="lineBottom" d="M127.3,218h57.5c1.8,0,3.3,1.5,3.3,3.3v9.5c0,1.8-1.5,3.3-3.3,3.3h-57.5c-1.8,0-3.3-1.5-3.3-3.3v-9.5
		C124,219.5,125.5,218,127.3,218z"/>
	<path id="lineTop" d="M127.3,250h57.5c1.8,0,3.3,1.5,3.3,3.3v9.5c0,1.8-1.5,3.3-3.3,3.3h-57.5c-1.8,0-3.3-1.5-3.3-3.3v-9.5
		C124,251.5,125.5,250,127.3,250z"/>
	<path id="shellPanel" d="M209.1,186H96c-2.2,0-4,1.8-4,4v104c0,2.2,1.8,4,4,4h120c2.2,0,4-1.8,4-4v-95.5c0-2-0.6-4-1.8-5.6
		c-0.8-1.1-1.6-2.2-2.3-3.3C214.4,187.4,211.8,186,209.1,186z M204,278c0,2.2-1.8,4-4,4h-88c-2.2,0-4-1.8-4-4v-72c0-2.2,1.8-4,4-4
		h88c2.2,0,4,1.8,4,4V278z"/>
</g>
</svg>
