<?xml version="1.0" encoding="utf-8"?>
<!-- Generator: Adobe Illustrator 23.0.6, SVG Export Plug-In . SVG Version: 6.00 Build 0)  -->
<svg version="1.1" id="littleLogo" xmlns="http://www.w3.org/2000/svg" xmlns:xlink="http://www.w3.org/1999/xlink" x="0px" y="0px"
	 viewBox="0 0 170 170" style="enable-background:new 0 0 170 170;" xml:space="preserve">
<style type="text/css">
	.st0{fill-rule:evenodd;clip-rule:evenodd;fill:#FFFFFF;stroke:#FFFFFF;stroke-miterlimit:10;}
	.st1{fill-rule:evenodd;clip-rule:evenodd;fill:#1B262C;stroke:#FFFFFF;stroke-miterlimit:10;}
	.st2{fill-rule:evenodd;clip-rule:evenodd;fill:#1B262C;}
	.st3{fill-rule:evenodd;clip-rule:evenodd;fill:#0F4C75;stroke:#FFFFFF;stroke-miterlimit:10;}
	.st4{fill-rule:evenodd;clip-rule:evenodd;fill:#3282B8;stroke:#FFFFFF;stroke-miterlimit:10;}
	.st5{fill-rule:evenodd;clip-rule:evenodd;fill:#3D3D3F;stroke:#FFFFFF;stroke-miterlimit:10;}
</style>
<g id="Python">
	<g id="Pyhondot">
		<circle id="background" class="st0" cx="85" cy="85" r="32.9"/>
		<path id="topdot" class="st1" d="M80,69.3c-1,0-1.7,0.8-1.7,1.8s0.8,1.7,1.9,1.7c1,0,1.7-0.7,1.7-1.8C81.8,70,81.1,69.3,80,69.3z"
			/>
		<path id="bottomdot" class="st1" d="M89.9,102.2c1,0,1.7-0.8,1.7-1.8s-0.8-1.7-1.9-1.7c-1,0-1.7,0.7-1.7,1.8
			C88.1,101.5,88.8,102.2,89.9,102.2z"/>
		<path id="Pythonlogo" class="st2" d="M95,55.6C78.7,50.1,61.1,58.8,55.6,75c-5.5,16.3,3.2,33.9,19.4,39.4
			c16.3,5.5,33.9-3.2,39.4-19.4S111.2,61.2,95,55.6z M74.3,90.5c0,1.4,0,2.9,0,4.3c0,0.2-0.2,0.5-0.3,0.5c-1.1,0-2.3,0.1-3.4,0
			c-1.6-0.2-2.7-1.2-3.4-2.5c-1-1.7-1.3-3.6-1.4-5.5c0-1-0.1-1.9,0-2.9c0.3-2.9,0.9-5.6,3.8-7.1c0.5-0.2,1.1-0.4,1.6-0.4
			c4.4-0.1,8.9-0.1,13.3-0.1c0.6,0,0.7-0.3,0.7-0.9s-0.2-0.7-0.7-0.7c-2.6,0-5.2,0-7.9,0c-0.9,0-0.9,0-0.9-0.9s0.1-1.9,0-2.8
			c-0.1-1.8,0.9-2.9,2.4-3.7c1.6-0.8,3.3-0.9,4.9-1.1c2.2-0.3,4.4-0.1,6.6,0.4c1.6,0.3,3.1,0.9,4.1,2.3c0.5,0.6,0.7,1.3,0.7,2.1
			c0,2.9,0,5.7,0,8.6c0,3.6-2.5,5-5,5.1c-1.6,0.1-3.3,0-4.9,0l0,0c-1.6,0-3.2,0-4.7,0C76.5,85.2,74.3,87.4,74.3,90.5z M104.2,87.1
			c-0.3,2.9-0.9,5.6-3.8,7.1c-0.5,0.2-1.1,0.4-1.6,0.4c-4.4,0.1-8.9,0.1-13.3,0.1c-0.6,0-0.7,0.3-0.7,0.9s0.2,0.7,0.7,0.7
			c2.6,0,5.2,0,7.9,0c0.9,0,0.9,0,0.9,0.9s-0.1,1.9,0,2.8c0.1,1.8-0.9,2.9-2.4,3.7c-1.6,0.8-3.3,0.9-4.9,1.1
			c-2.2,0.3-4.4,0.1-6.6-0.4c-1.6-0.3-3.1-0.9-4.1-2.3c-0.5-0.6-0.7-1.3-0.7-2.1c0-2.9,0-5.7,0-8.6c0-3.6,2.5-5,5-5.1
			c1.6-0.1,3.3,0,4.9,0l0,0c1.6,0,3.2,0,4.7,0c3.1,0,5.3-2.2,5.3-5.3c0-1.4,0-2.9,0-4.3c0-0.2,0.2-0.5,0.3-0.5c1.1,0,2.3-0.1,3.4,0
			c1.6,0.2,2.7,1.2,3.4,2.5c1,1.7,1.3,3.6,1.4,5.5C104.2,85.2,104.2,86.2,104.2,87.1z"/>
	</g>
</g>
<g id="mecha">
	<path id="blue" class="st3" d="M118,24.9c-5.9,1.1-13.9,3.3-22.3,7.3c-5.9,2.6-11.3,5.9-15.7,9.1c1.1,0,2.9-0.4,4-0.4
		c24.1-0.4,44.3,19,44.6,42.8c0,2.2,0,4.4-0.4,6.6c2.9,9.5,4,19.7,3.3,30c-0.7,10.2-2.9,19-4.8,24.5l8.4,5.1
		c5.1-4,9.9-8.8,14.3-13.5l-7.7-13.2c1.5-2.6,3.3-5.1,4.4-7.7l15,0.4c2.6-6.2,4.4-12.4,5.5-19l-12.8-7.3c0.4-2.2,0.4-4,0.4-6.6
		c0-0.7,0-1.5,0-2.2l13.2-6.9c-0.7-6.9-2.6-13.2-4.8-19h-15c-1.5-2.9-2.9-5.1-4.4-7.7l7.3-12.4c-4-5.1-8.8-9.9-13.5-14.3l-13.2,7.7
		C121.3,27.1,119.8,26,118,24.9z"/>
	<path id="lightBlue" class="st4" d="M15.6,86.3c4,4.4,10.2,11,18.7,16.5c5.1,3.7,10.2,6.2,15.4,8.8c-5.1-7.3-8.4-16.1-8.8-25.2
		c-0.4-17.9,10.2-33.6,26-40.6c6.9-7.7,16.1-13.9,26.7-18.7c8.8-4,16.8-6.2,23-7.7l0.4-9.9c-6.2-2.6-12.4-4.4-19-5.5l-7.3,12.8
		c-2.2-0.4-4-0.4-6.6-0.4c-0.7,0-1.5,0-2.2,0L75,3.2C68.1,3.9,61.8,5.8,56,8v15c-2.9,1.5-5.1,2.9-7.7,4.4l-12.8-7.7
		c-5.1,4-9.9,8.8-14.3,13.5l7.7,13.2c-1.5,2.6-3.3,5.1-4.4,7.7l-15-0.4c-2.6,6.2-4.4,12.4-5.5,19L16.8,80
		C15.6,81.6,15.6,83.8,15.6,86.3L15.6,86.3z"/>
	<path id="grey" class="st5" d="M87.6,153.6l6.9,13.2c6.9-0.7,13.2-2.6,19-4.8v-15c1.8-0.7,3.7-1.8,5.9-2.9
		c1.8-5.1,4.4-13.5,5.1-23.8c0.4-5.9,0.4-11.3-0.4-16.8c-6.9,14.6-21.6,25.2-39.1,25.2c-9.5,0.4-17.9-2.6-25.6-7.7
		c-9.9-2.2-19.7-6.6-28.9-13.5c-8.4-5.9-15-12.4-19.4-16.8l-8.4,4.4c0.7,6.9,2.6,13.2,4.8,19h15c1.5,2.9,2.9,5.1,4.4,7.7l-7.7,12.8
		c4,5.1,8.8,9.9,13.5,14.3l13.2-7.7c2.6,1.5,5.1,3.3,7.7,4.4l-0.4,15c6.2,2.6,12.4,4.4,19,5.5l7.3-12.8c2.2,0.4,4,0.4,6.6,0.4
		C86.1,154,86.9,153.6,87.6,153.6z"/>
</g>
</svg>
