<?xml version="1.0" encoding="utf-8"?>
<!-- Generator: Adobe Illustrator 23.0.6, SVG Export Plug-In . SVG Version: 6.00 Build 0)  -->
<svg version="1.1" id="modeling" xmlns="http://www.w3.org/2000/svg" xmlns:xlink="http://www.w3.org/1999/xlink" x="0px" y="0px"
	 viewBox="0 0 520 407.1" style="enable-background:new 0 0 520 407.1;" xml:space="preserve">
<g id="lights">
	<path id="leftLight_2_" d="M61.8,348.8H71c1.9,0,3.4,1.5,3.4,3.4v9.1c0,1.9-1.5,3.4-3.4,3.4h-9.1c-1.9,0-3.4-1.5-3.4-3.4v-9.1
		C58.4,350.3,59.9,348.8,61.8,348.8z"/>
	<path id="leftLight_1_" d="M94.1,348.8h9.1c1.9,0,3.4,1.5,3.4,3.4v9.1c0,1.9-1.5,3.4-3.4,3.4h-9.1c-1.9,0-3.4-1.5-3.4-3.4v-9.1
		C90.7,350.3,92.2,348.8,94.1,348.8z"/>
	<path id="leftLight" d="M126.3,348.8h9.1c1.9,0,3.4,1.5,3.4,3.4v9.1c0,1.9-1.5,3.4-3.4,3.4h-9.1c-1.9,0-3.4-1.5-3.4-3.4v-9.1
		C122.9,350.3,124.4,348.8,126.3,348.8z"/>
	<path id="rightLight" d="M400.6,348.8h57.6c1.9,0,3.4,1.5,3.4,3.4v9.1c0,1.9-1.5,3.4-3.4,3.4h-57.6c-1.9,0-3.4-1.5-3.4-3.4v-9.1
		C397.1,350.3,398.7,348.8,400.6,348.8z"/>
</g>
<g id="dots">
	<path d="M176.1,72.3l-3.9-4.9c-1.1-1.3-3.1-1.5-4.4-0.4c-3.4,2.9-6.6,5.9-9.7,9.1c-1.2,1.3-1.1,3.2,0.1,4.4l4.6,4.3
		c1.2,1.1,3.1,1.1,4.3-0.1c2.7-2.8,5.6-5.5,8.6-8C176.9,75.5,177.2,73.6,176.1,72.3z"/>
	<path d="M207.4,54.1l-2.3-5.8c-0.6-1.6-2.5-2.4-4.1-1.7c-4.1,1.7-8,3.7-11.9,5.8c-1.5,0.8-2,2.7-1.2,4.3l3.2,5.4
		c0.8,1.5,2.7,2,4.2,1.1c3.4-1.9,6.9-3.6,10.6-5.1C207.3,57.4,208.1,55.7,207.4,54.1z"/>
	<path d="M151.5,99l-5.3-3.6c-1.4-1-3.4-0.6-4.4,0.9c-2.4,3.7-4.6,7.5-6.6,11.5c-0.8,1.5-0.1,3.4,1.4,4.2l5.7,2.7
		c1.5,0.7,3.3,0.1,4.1-1.3c1.8-3.4,3.8-6.9,5.9-10.2C153.3,101.8,152.9,99.9,151.5,99z"/>
	<path d="M130.6,167.5h-6.3c-1.8,0-3.2,1.4-3.1,3.2c0.1,4.4,0.4,8.8,1,13.2c0.2,1.8,1.8,3,3.5,2.7l6.2-1c1.6-0.3,2.8-1.8,2.6-3.4
		c-0.5-3.8-0.8-7.7-0.8-11.6C133.6,168.9,132.2,167.5,130.6,167.5z"/>
	<path d="M242.8,46l-0.5-6.3c-0.1-1.8-1.7-3-3.4-2.8c-4.4,0.4-8.8,1.1-13.1,2c-1.7,0.4-2.8,2-2.4,3.7l1.4,6.2c0.4,1.6,2,2.7,3.6,2.3
		c3.8-0.8,7.7-1.3,11.6-1.8C241.6,49.1,242.8,47.7,242.8,46z"/>
	<path d="M223,282.3c-3.8-0.9-7.5-2.1-11.2-3.4c-1.5-0.6-3.3,0.2-3.9,1.8l-2.3,5.8c-0.6,1.6,0.2,3.4,1.8,4c4.2,1.5,8.4,2.8,12.7,3.9
		c1.7,0.4,3.4-0.6,3.8-2.3l1.4-6.1C225.7,284.4,224.6,282.7,223,282.3z"/>
	<path d="M261.9,294.9l-0.5-6.3c-0.1-1.7-1.5-3-3.2-2.9c-3.9,0.2-7.9,0.2-11.8,0c-1.7-0.1-3.1,1.2-3.2,2.9l-0.5,6.3
		c-0.1,1.8,1.2,3.2,3,3.3c2.2,0.1,4.3,0.1,6.5,0.1c2.3,0,4.6,0,6.8-0.1C260.7,298.1,262,296.6,261.9,294.9z"/>
	<path d="M190.5,268.6c-3.3-2-6.5-4.3-9.7-6.6c-1.3-1-3.2-0.8-4.3,0.6l-3.9,5c-1.1,1.3-0.8,3.4,0.6,4.4c3.5,2.7,7.2,5.2,11,7.5
		c1.5,0.9,3.4,0.4,4.3-1.1l3.2-5.5C192.3,271.3,191.9,269.5,190.5,268.6z"/>
	<path d="M145.8,244c2.6,3.6,5.3,7,8.3,10.3c1.1,1.3,3.2,1.4,4.4,0.2l4.6-4.3c1.2-1.1,1.3-3,0.2-4.3c-2.6-2.9-5-6-7.3-9.1
		c-1-1.3-2.9-1.7-4.2-0.8l-5.2,3.6C145.1,240.6,144.7,242.5,145.8,244z"/>
	<path d="M135.9,203.3l-6,1.9c-1.7,0.5-2.6,2.3-2,3.9c1.4,4.2,3,8.3,4.9,12.3c0.7,1.6,2.6,2.3,4.2,1.5l5.6-2.7
		c1.5-0.7,2.2-2.5,1.5-4.1c-1.6-3.6-3-7.2-4.3-10.9C139.3,203.7,137.5,202.9,135.9,203.3z"/>
	<path d="M341.9,84.7l4.6-4.2c1.3-1.2,1.3-3.2,0.1-4.4c-3.1-3.2-6.3-6.2-9.6-9c-1.3-1.1-3.3-0.9-4.4,0.4l-3.9,4.9
		c-1.1,1.3-0.8,3.2,0.4,4.3c3,2.5,5.8,5.2,8.6,8C338.7,85.9,340.7,85.9,341.9,84.7z"/>
	<path d="M313.6,62.1l3.2-5.4c0.8-1.5,0.4-3.4-1.2-4.3c-3.9-2.1-7.8-4.1-11.9-5.8c-1.6-0.7-3.4,0.1-4.1,1.7l-2.3,5.8
		c-0.6,1.5,0.1,3.3,1.7,3.9c3.6,1.5,7,3.2,10.5,5.1C311,64.1,312.8,63.6,313.6,62.1z"/>
	<path d="M362.3,114.7l5.7-2.7c1.5-0.8,2.2-2.7,1.4-4.2c-2-3.9-4.2-7.8-6.6-11.5c-0.9-1.5-2.9-1.8-4.4-0.8l-5.2,3.6
		c-1.4,0.9-1.8,2.8-0.8,4.2c2.1,3.3,4.1,6.7,5.8,10.1C359,114.9,360.8,115.5,362.3,114.7z"/>
	<path d="M372.8,185.7l6.3,1c1.7,0.3,3.3-0.9,3.5-2.7c0.6-4.4,0.9-8.7,1-13.2c0.1-1.8-1.3-3.2-3.1-3.2h-6.3c-1.7,0-3,1.3-3.1,3
		c-0.1,3.9-0.4,7.8-0.9,11.7C370,184,371.1,185.5,372.8,185.7z"/>
	<path d="M279.9,48.8l1.4-6.1c0.4-1.7-0.7-3.4-2.4-3.7c-4.3-0.9-8.7-1.5-13.1-2c-1.8-0.1-3.2,1.1-3.4,2.8L262,46
		c-0.1,1.7,1.1,3.2,2.7,3.3c3.9,0.4,7.7,1,11.6,1.8C277.9,51.5,279.5,50.4,279.9,48.8z"/>
	<path d="M284.6,294.5c4.3-1.1,8.5-2.4,12.7-3.9c1.6-0.6,2.5-2.4,1.8-4l-2.3-5.8c-0.6-1.5-2.3-2.3-3.9-1.8
		c-3.7,1.3-7.5,2.5-11.3,3.4c-1.6,0.4-2.6,2-2.3,3.7l1.4,6.2C281.2,293.9,282.9,294.9,284.6,294.5z"/>
	<path d="M320.7,279.4c3.7-2.3,7.4-4.8,11-7.5c1.4-1.1,1.6-3,0.6-4.4l-3.9-5c-1.1-1.3-3-1.5-4.3-0.6c-3.2,2.3-6.4,4.6-9.7,6.6
		c-1.4,0.8-1.9,2.7-1.1,4.2l3.2,5.5C317.2,279.8,319.2,280.3,320.7,279.4z"/>
	<path d="M348.6,236.8c-2.3,3.2-4.7,6.2-7.3,9.1c-1.1,1.3-1,3.2,0.2,4.3l4.6,4.3c1.3,1.2,3.2,1.1,4.4-0.2c3-3.3,5.7-6.8,8.3-10.3
		c1-1.4,0.7-3.4-0.8-4.4l-5.3-3.6C351.5,235.1,349.6,235.4,348.6,236.8z"/>
	<path d="M362.1,220.3l5.7,2.7c1.5,0.8,3.4,0.1,4.2-1.5c1.8-4,3.4-8.2,4.9-12.4c0.6-1.6-0.4-3.4-2-3.9l-6-1.9
		c-1.6-0.5-3.3,0.4-3.9,2c-1.3,3.7-2.7,7.4-4.4,11C359.9,217.8,360.6,219.5,362.1,220.3z"/>
	<path d="M135.9,131.2l-6-2c-1.6-0.6-3.4,0.4-3.9,2c-1.3,4.2-2.4,8.6-3.2,12.9c-0.4,1.7,0.8,3.3,2.5,3.7l6.3,1.1
		c1.6,0.3,3.2-0.8,3.5-2.5c0.8-3.9,1.7-7.7,2.8-11.5C138.4,133.4,137.5,131.7,135.9,131.2z"/>
	<path d="M372.1,148.8l6.2-1.1c1.7-0.3,2.8-2,2.5-3.7c-0.8-4.3-1.9-8.7-3.2-12.9c-0.5-1.7-2.3-2.6-3.9-2l-6.1,2
		c-1.6,0.5-2.5,2.2-2,3.8c1.1,3.8,2.1,7.6,2.9,11.4C368.9,148,370.4,149.1,372.1,148.8z"/>
</g>
<path id="cube" d="M344.6,119.1L266,79.8c-0.6-0.3-1.3-0.4-1.8-0.1l-104.1,39c-0.9,0.4-1.5,1.2-1.5,2.1v46.4v46.2
	c0,0.8,0.5,1.7,1.3,2l78.6,39.3c0.6,0.3,1.3,0.4,1.8,0.1l104.1-39c0.9-0.4,1.5-1.2,1.5-2.1v-46.4v-46.2
	C345.9,120.3,345.4,119.5,344.6,119.1z M274.2,97.9l45,22.5c1.8,0.9,1.6,3.5-0.2,4.2l-45,16.9c-1.5,0.6-3.1-0.6-3.1-2.1V100
	C270.9,98.2,272.7,97.1,274.2,97.9z M247.4,164.8l7.9-3c1.5-0.6,3.1,0.6,3.1,2.1v3.6c0,1-0.6,1.8-1.5,2.1l-7.9,3
	c-1.5,0.6-3.1-0.6-3.1-2.1v-3.6C245.9,166,246.5,165.1,247.4,164.8z M258.5,98.4v47.3c0,1-0.6,1.8-1.5,2.1l-16,6
	c-0.6,0.2-1.3,0.2-1.8-0.1l-54.1-27c-1.8-0.9-1.6-3.5,0.2-4.2l70-26.3C256.8,95.7,258.5,96.8,258.5,98.4z M230.2,236.6l-45-22.5
	c-1.8-0.9-1.6-3.5,0.2-4.2l45-16.9c1.5-0.6,3.1,0.6,3.1,2.1v39.4C233.5,236.4,231.7,237.4,230.2,236.6z M171,198.7v-61.2
	c0-1.7,1.8-2.8,3.3-2l57.9,28.9c0.8,0.4,1.3,1.2,1.3,2V177c0,1-0.6,1.8-1.5,2.1l-57.9,21.7C172.7,201.4,171,200.3,171,198.7z
	 M245.9,236.1v-47.3c0-1,0.6-1.8,1.5-2.1l16-6c0.6-0.2,1.3-0.2,1.8,0.1l54.1,27c1.8,0.9,1.6,3.5-0.2,4.2l-70,26.3
	C247.5,238.8,245.9,237.8,245.9,236.1z M270.9,168.2v-10.6c0-1,0.6-1.8,1.5-2.1l57.9-21.7c1.5-0.6,3.1,0.6,3.1,2.1v61.2
	c0,1.7-1.8,2.8-3.3,2l-57.9-28.9C271.4,169.8,270.9,169.1,270.9,168.2z"/>
<path id="shell" d="M493.9,316.4V50.3c0-22.3-18-40.3-40.3-40.3H66.4c-22.3,0-40.3,18-40.3,40.3v266.1H10v40.3
	c0,22.3,18,40.3,40.3,40.3h419.3c22.3,0,40.3-18,40.3-40.3v-40.3L493.9,316.4L493.9,316.4z M493.9,356.8c0,13.3-10.9,24.2-24.2,24.2
	H50.3c-13.3,0-24.2-10.9-24.2-24.2v-24.2h166.1c11.6,10.4,26.4,16.1,42.2,16.1h51.1c15.7,0,30.5-5.8,42.2-16.1h101.7v-16.1H321.2
	l-2.3,2.3c-8.9,8.9-20.7,13.8-33.3,13.8h-51.1c-12.6,0-24.4-4.9-33.3-13.8l-2.3-2.3H74.5v-258h93.4c8.2-6.3,17-11.8,26.5-16.1H74.5
	c-8.9,0-16.1,7.2-16.1,16.1v258.1H42.3V50.3c0-13.3,10.9-24.2,24.2-24.2h387.1c13.3,0,24.2,10.9,24.2,24.2v266.1h-16.1v-258
	c0-8.9-7.2-16.1-16.1-16.1H310.3c9.5,4.4,18.4,9.8,26.5,16.1h108.7v274.2H494L493.9,356.8L493.9,356.8z"/>
</svg>
