<?xml version="1.0" encoding="utf-8"?>
<!-- Generator: Adobe Illustrator 23.0.6, SVG Export Plug-In . SVG Version: 6.00 Build 0)  -->
<svg version="1.1" id="coprs" xmlns="http://www.w3.org/2000/svg" xmlns:xlink="http://www.w3.org/1999/xlink" x="0px" y="0px"
	 viewBox="0 0 1133.9 1133.9" style="enable-background:new 0 0 1133.9 1133.9;" xml:space="preserve">
<g id="Tete">
	
		<animateMotion  accumulate="none" additive="replace" calcMode="paced" dur="3s" fill="remove" path="M 0 0 V 10 Z" repeatCount="indefinite" restart="always">
		</animateMotion>
	<path d="M584.9,420.6h5.4c2.5,0,4.5-1,6-3.1l60.2-80.4c1-1.2,1.4-2.9,1.4-4.5V300c0-4.1,3.3-7.6,7.6-7.6H687c4.1,0,7.6-3.3,7.6-7.6
		V154c0-4.1-3.3-7.6-7.6-7.6H446.6c-4.1,0-7.6,3.3-7.6,7.6v131.3c0,4.1,3.3,7.6,7.6,7.6H468c4.1,0,7.6,3.3,7.6,7.6v34.8l0,0
		l61.6,82.3c1.4,1.9,3.7,3.1,6,3.1h5.4 M621.8,323L578.3,381c-1.4,1.9-3.7,3.1-6,3.1h-10.7c-2.5,0-4.5-1-6-3.1l-42.3-55.9
		c-1-1.2-1.4-2.9-1.4-4.5v-20.4c0-4.1,3.3-7.6,7.6-7.6h94.6c4.1,0,7.6,3.3,7.6,7.6V323L621.8,323L621.8,323z"/>
</g>
<g id="Corps">
	<path d="M1079.1,0H54.9C24.6,0,0.1,24.5,0.1,54.8v951c0,23.9,15.3,43.9,36.5,51.5v40c0,20.2,16.5,36.5,36.5,36.5h73.4
		c20.2,0,36.5-16.5,36.5-36.5v-36.5h768.1v36.5c0,20.2,16.5,36.5,36.5,36.5h73.2c20.2,0,36.5-16.5,36.5-36.5v-40
		c21.2-7.6,36.5-27.6,36.5-51.5v-951C1133.9,24.5,1109.4,0,1079.1,0z M146.4,1097.4H73.2v-36.5h73.2V1097.4z M1060.7,1097.4h-73.2
		v-36.5h73.2V1097.4z M1097.4,1005.8c0,10.1-8.2,18.3-18.3,18.3H54.9c-10.1,0-18.3-8.2-18.3-18.3v-951c0-10.1,8.2-18.3,18.3-18.3
		h1024.2c10.1,0,18.3,8.2,18.3,18.3V1005.8L1097.4,1005.8z"/>
	<path d="M73.2,87.6v885.4c0,8,6.4,14.4,14.4,14.4h958.6c8,0,14.4-6.4,14.4-14.4V87.6c0-8-6.4-14.4-14.4-14.4H87.7
		C79.6,73.2,73.2,79.6,73.2,87.6z M109.7,107.2h899.9c8,0,14.4,6.4,14.4,14.4V951h0.2H109.7 M1024.2,182.9H731.5"/>
	<path d="M713.4,791.4V616.6c0-4.1-2.5-8-6.4-9.7L571.1,549c-2.7-1.2-5.8-1.2-8.5,0l-135.9,58.1c-3.9,1.6-6.4,5.4-6.4,9.7v174.8
		c0,4.1,2.5,8,6.4,9.7l135.9,58.1c2.7,1.2,5.8,1.2,8.5,0L707,801.3C710.9,799.5,713.4,795.8,713.4,791.4z M670.3,777l-70.1,30.1
		c-7,3.1-14.8-2.1-14.8-9.9V695.8c0-4.3,2.5-8,6.4-9.9l70.1-30.1c7-3.1,14.8,2.1,14.8,9.9v101.4C676.7,771.6,674.2,775.4,670.3,777z
		 M571.1,588.8l66.6,28.7c4.1,1.6,4.1,7.4,0,9.3l-66.6,28.4c-2.7,1.2-5.8,1.2-8.5,0l-66.6-28.7c-4.1-1.6-4.1-7.4,0-9.3l66.6-28.7
		C565.5,587.5,568.4,587.5,571.1,588.8z M539.4,809.6l-75.9-32.4c-3.9-1.6-6.4-5.6-6.4-9.9V659.7c0-4.7,4.9-8,9.3-6l75.9,32.4
		c3.9,1.6,6.4,5.6,6.4,9.9v107.6C548.6,808.1,543.7,811.4,539.4,809.6z"/>
	<path d="M394.8,877.8h344.3c6,0,10.7,4.7,10.7,10.7v15c0,6-4.7,10.7-10.7,10.7H394.8c-6,0-10.7-4.7-10.7-10.7v-15
		C384.1,882.6,388.9,877.8,394.8,877.8z"/>
	<path d="M760.6,603.4h15c6,0,10.7,4.7,10.7,10.7v15c0,6-4.7,10.7-10.7,10.7h-15c-6,0-10.7-4.7-10.7-10.7v-15
		C749.8,608.2,754.6,603.4,760.6,603.4z"/>
	<path d="M833.7,603.4h15c6,0,10.7,4.7,10.7,10.7v15c0,6-4.7,10.7-10.7,10.7h-15c-6,0-10.7-4.7-10.7-10.7v-15
		C823,608.2,827.8,603.4,833.7,603.4z"/>
	<path d="M906.9,603.4h15c6,0,10.7,4.7,10.7,10.7v15c0,6-4.7,10.7-10.7,10.7h-15c-6,0-10.7-4.7-10.7-10.7v-15
		C896.2,608.2,901,603.4,906.9,603.4z"/>
	<path d="M212,603.4h15c6,0,10.7,4.7,10.7,10.7v15c0,6-4.7,10.7-10.7,10.7h-15c-6,0-10.7-4.7-10.7-10.7v-15
		C201.3,608.2,206,603.4,212,603.4z"/>
	<path d="M285.2,603.4h15c6,0,10.7,4.7,10.7,10.7v15c0,6-4.7,10.7-10.7,10.7h-15c-6,0-10.7-4.7-10.7-10.7v-15
		C274.4,608.2,279.2,603.4,285.2,603.4z"/>
	<path d="M358.1,603.4h15c6,0,10.7,4.7,10.7,10.7v15c0,6-4.7,10.7-10.7,10.7h-15c-6,0-10.7-4.7-10.7-10.7v-15
		C347.4,608.2,352.2,603.4,358.1,603.4z"/>
</g>
<g id="Axe">
	
		<animateMotion  accumulate="none" additive="replace" calcMode="paced" dur="3s" fill="remove" path="M 0 0 V 10 Z" repeatCount="indefinite" restart="always">
		</animateMotion>
	<polygon points="109.7,219.6 109.7,182.9 1024.2,182.9 1024,219.6 	"/>
</g>
</svg>
