<?xml version="1.0" encoding="utf-8"?>
<!-- Generator: Adobe Illustrator 23.0.6, SVG Export Plug-In . SVG Version: 6.00 Build 0)  -->
<svg version="1.1" id="computer" xmlns="http://www.w3.org/2000/svg" xmlns:xlink="http://www.w3.org/1999/xlink" x="0px" y="0px"
	 viewBox="0 0 496 496" style="enable-background:new 0 0 496 496;" xml:space="preserve">
<g id="buttons_x5F_bottom">
	<path d="M52.6,448h6.8c2.5,0,4.6,2.1,4.6,4.6v6.8c0,2.5-2.1,4.6-4.6,4.6h-6.8c-2.5,0-4.6-2.1-4.6-4.6v-6.8
		C48,450.1,50.1,448,52.6,448z"/>
	<path d="M84.6,448h6.8c2.5,0,4.6,2.1,4.6,4.6v6.8c0,2.5-2.1,4.6-4.6,4.6h-6.8c-2.5,0-4.6-2.1-4.6-4.6v-6.8
		C80,450.1,82.1,448,84.6,448z"/>
	<path d="M116.6,448h6.8c2.5,0,4.6,2.1,4.6,4.6v6.8c0,2.5-2.1,4.6-4.6,4.6h-6.8c-2.5,0-4.6-2.1-4.6-4.6v-6.8
		C112,450.1,114.1,448,116.6,448z"/>
	<path d="M388.6,448h54.8c2.5,0,4.6,2.1,4.6,4.6v6.8c0,2.5-2.1,4.6-4.6,4.6h-54.8c-2.5,0-4.6-2.1-4.6-4.6v-6.8
		C384,450.1,386.1,448,388.6,448z"/>
</g>
<path id="dots_x5F_middle" d="M392,336c-4.9,0-9.5,1.5-13.3,4l-27.9-20.9c0.7-2.3,1.2-4.6,1.2-7.1c0-13.2-10.8-24-24-24
	s-24,10.8-24,24c0,2.8,0.6,5.4,1.4,7.8l-44.8,35.8c-3.7-2.3-8-3.7-12.6-3.7c-5.4,0-10.3,1.8-14.3,4.8l-34.5-23
	c0.5-1.9,0.8-3.8,0.8-5.8c0-13.2-10.8-24-24-24s-24,10.8-24,24c0,2,0.3,4,0.8,5.8l-34.5,23c-4-3-8.9-4.8-14.3-4.8
	c-13.2,0-24,10.8-24,24s10.8,24,24,24s24-10.8,24-24c0-2-0.3-4-0.8-5.8l34.5-23c4,3,8.9,4.8,14.3,4.8s10.3-1.8,14.3-4.8l34.5,23
	c-0.5,1.9-0.8,3.8-0.8,5.8c0,13.2,10.8,24,24,24c13.2,0,24-10.8,24-24c0-2.8-0.6-5.4-1.4-7.8l44.8-35.8c3.7,2.3,8,3.7,12.6,3.7
	c4.9,0,9.5-1.5,13.3-4l27.9,20.9c-0.7,2.3-1.2,4.6-1.2,7.1c0,13.2,10.8,24,24,24s24-10.8,24-24S405.2,336,392,336z M104,384
	c-4.4,0-8-3.6-8-8s3.6-8,8-8s8,3.6,8,8S108.4,384,104,384z M176,336c-4.4,0-8-3.6-8-8s3.6-8,8-8s8,3.6,8,8S180.4,336,176,336z
	 M248,384c-4.4,0-8-3.6-8-8s3.6-8,8-8s8,3.6,8,8S252.4,384,248,384z M328,320c-4.4,0-8-3.6-8-8s3.6-8,8-8s8,3.6,8,8
	S332.4,320,328,320z M392,368c-4.4,0-8-3.6-8-8s3.6-8,8-8s8,3.6,8,8S396.4,368,392,368z"/>
<g id="panel_x5F_top">
	<path d="M115.3,208h57.5c1.8,0,3.3,1.5,3.3,3.3v9.5c0,1.8-1.5,3.3-3.3,3.3h-57.5c-1.8,0-3.3-1.5-3.3-3.3v-9.5
		C112,209.5,113.5,208,115.3,208z"/>
	<path d="M115.3,240h57.5c1.8,0,3.3,1.5,3.3,3.3v9.5c0,1.8-1.5,3.3-3.3,3.3h-57.5c-1.8,0-3.3-1.5-3.3-3.3v-9.5
		C112,241.5,113.5,240,115.3,240z"/>
</g>
<path id="dot_x5F_top" d="M228,256h8c2.2,0,4,1.8,4,4v8c0,2.2-1.8,4-4,4h-8c-2.2,0-4-1.8-4-4v-8C224,257.8,225.8,256,228,256z"/>
<path id="line_x5F_top" d="M260,256h152c2.2,0,4,1.8,4,4v8c0,2.2-1.8,4-4,4H260c-2.2,0-4-1.8-4-4v-8C256,257.8,257.8,256,260,256z"
	/>
<path d="M492.8,416h-9.6c-1.8,0-3.2-1.4-3.2-3.2V155.2c0-23.9-19.3-43.2-43.2-43.2h-6.2c-2.9,0-5.3,2.3-5.5,5.3
	c-0.1,1.6-0.2,3.2-0.3,4.8c-0.3,3.2,2.3,5.9,5.4,5.9h6.5c15,0,27.2,12.2,27.2,27.2v257.6c0,1.8-1.4,3.2-3.2,3.2h-9.6
	c-1.8,0-3.2-1.4-3.2-3.2V163.2c0-10.6-8.6-19.2-19.2-19.2H425c-2.4,0-4.5,1.6-5.2,3.8c-0.5,1.7-1.1,3.3-1.6,4.9
	c-1.3,3.6,1.3,7.3,5.1,7.3h5.3c1.8,0,3.2,1.4,3.2,3.2v265.6c0,1.8,1.4,3.2,3.2,3.2h41.6c1.8,0,3.2,1.4,3.2,3.2v17.6
	c0,15-12.2,27.2-27.2,27.2H43.2c-15,0-27.2-12.2-27.2-27.2v-17.6c0-1.8,1.4-3.2,3.2-3.2h160.4c0.8,0,1.5,0.3,2.1,0.8
	c11.4,9.8,25.7,15.2,40.9,15.2h50.7c15.2,0,29.5-5.4,40.9-15.2c0.6-0.5,1.3-0.8,2.1-0.8h96.4c1.8,0,3.2-1.4,3.2-3.2v-9.6
	c0-1.8-1.4-3.2-3.2-3.2H310c-0.8,0-1.7,0.3-2.3,0.9l-0.5,0.5c-9.3,9.3-22,14.6-35.2,14.6h-49.4c-12.5,0-24.2-4.8-33-13.7l-1.4-1.4
	c-0.6-0.6-1.4-0.9-2.3-0.9H67.2c-1.8,0-3.2-1.4-3.2-3.2V163.2c0-1.8,1.4-3.2,3.2-3.2h117.4c3.8,0,6.4-3.8,5.1-7.3
	c-0.6-1.6-1.1-3.2-1.6-4.8c-0.7-2.3-2.8-3.8-5.2-3.8H67.2c-10.6,0-19.2,8.6-19.2,19.2v249.6c0,1.8-1.4,3.2-3.2,3.2h-9.6
	c-1.8,0-3.2-1.4-3.2-3.2V155.2c0-15,12.2-27.2,27.2-27.2h118.5c3.2,0,5.7-2.7,5.4-5.9c-0.1-1.6-0.2-3.1-0.3-4.7
	c-0.1-2.9-2.5-5.3-5.5-5.3h-118C35.3,112,16,131.3,16,155.2v257.6c0,1.8-1.4,3.2-3.2,3.2H3.2c-1.8,0-3.2,1.4-3.2,3.2v33.6
	C0,476.7,19.3,496,43.2,496h409.6c23.9,0,43.2-19.3,43.2-43.2v-33.6C496,417.4,494.6,416,492.8,416z"/>
<path id="circle" d="M305,0c-62.7-0.5-113.5,50.3-113,113c0.5,60.8,50.2,110.5,111,111c62.7,0.5,113.5-50.3,112.9-112.9
	C415.5,50.2,365.8,0.5,305,0z M304,16c47.4,0,86.8,34.4,94.6,79.6c0.8,4.5-2.7,8.6-7.2,8.6h-78c-2.6,0-5-1.4-6.4-3.7l-39.4-68.3
	c-2.3-4-0.4-9,3.9-10.6C281.6,18,292.6,16,304,16z M208,112c0-29.9,13.6-56.5,35-74.1c3.5-2.9,8.8-1.9,11,2l39.5,68.5
	c1.3,2.3,1.3,5.1,0,7.3L254,184.2c-2.3,3.9-7.5,4.9-11,2C221.7,168.5,208,141.9,208,112z M304,208c-11.4,0-22.4-2-32.6-5.7
	c-4.3-1.6-6.2-6.6-3.9-10.6l39.4-68.3c1.3-2.3,3.7-3.7,6.4-3.7h78c4.6,0,8,4.1,7.2,8.6C390.8,173.6,351.4,208,304,208z"/>
<path d="M197.1,176H84c-2.2,0-4,1.8-4,4v104c0,2.2,1.8,4,4,4h120c2.2,0,4-1.8,4-4v-95.5c0-2-0.6-4-1.8-5.6c-0.8-1.1-1.6-2.2-2.3-3.3
	C202.4,177.4,199.8,176,197.1,176z M192,268c0,2.2-1.8,4-4,4h-88c-2.2,0-4-1.8-4-4v-72c0-2.2,1.8-4,4-4h88c2.2,0,4,1.8,4,4V268z"/>
</svg>
