<?xml version="1.0" encoding="utf-8"?>
<!-- Generator: Adobe Illustrator 23.0.6, SVG Export Plug-In . SVG Version: 6.00 Build 0)  -->
<svg version="1.1" id="arrow_x5F_left" xmlns="http://www.w3.org/2000/svg" xmlns:xlink="http://www.w3.org/1999/xlink" x="0px"
	 y="0px" viewBox="0 0 644.1 760" style="enable-background:new 0 0 644.1 760;" xml:space="preserve">
<g>
	<path d="M91.4,120.7c6-27,8.9-54.9,13.1-80.5c1.6-2,3.6-4.4,4.4-4c0.8,0.4,0,3.6-0.3,4.8c0,0-18.2,95.7-19,102.6v0.6
		c2.9,1.2,4.5,1.2,5.9,0.8c3.3-0.9,5.2-5,5.9-6.6c26.6-64.8,36.5-98,38.3-97.8c5.4,0.5-38.8,104.1-35.8,107.8
		c1.3,1.7,7.5,1.5,7.5,1.5c1.8-0.9,2.7-2.4,4.8-5.8c0.9-1.4,2.6-2.2,3.9-3.4l-0.1-0.1c-1.1,2.2-2.2,4.4-3.4,6.6
		c-2.7,5.1,0.6,7.9,6.7,10.3c2.5-5.9,9-9.1,11-15.3c-0.4,5.8-5.4,9.4-7.7,14.2c-0.6,1.2-0.3,3.6,0.6,4.5c2.6,2.7,5.7,4.9,8.2,7
		c3.6-2.1,6.8-3.9,10.3-5.8c-2.8,3.1-5.9,6.5-8.4,9.3c2,2.7,3.8,4.6,4.8,6.7c1.6,3.5,3.3,5.2,7,2.3c0.8-0.6,2.2-0.4,3.3-0.5
		l-0.1-0.1c-0.9,0.9-1.7,1.8-2.6,2.6c-3.2,2.8-3.9,8.7-0.5,11.1c1.7,1.2,5.4,0.8,7.7-0.2c16.5-6.9,32.8-14.1,49.2-21.1
		c2.4-1,4.9-1.7,7.7-1.9c-19,13.4-42.5,17.1-62.4,28.5c0.5,7.5,1.6,8,8.8,6.2c15.5-3.9,31.1-7.3,46.6-11.1
		c9.9-2.4,19.8-5.4,29.7-7.8c4.4-1.1,9-1.3,13.9-0.8c-0.7,0.6-1.4,1.4-2.2,1.7c-21,5.1-42.1,10.3-63.1,15.3c-9.3,2.2-18.6,4.2-28,6
		c-4,0.8-4.1,3.4-4.1,6.5c0,3.8,2.9,3.2,5,3.1c14.1-0.6,28.2-1.2,42.3-2.1c12.7-0.7,25.4-1.9,38.1-2.5c4.7-0.2,9.5,0.6,15.8,1
		c-2,1.3-2.8,2.1-3.7,2.2c-2.8,0.4-5.6,0.5-8.4,0.7c-9.6,0.6-19.2,1.4-28.8,1.9c-10.4,0.5-20.8,0.6-31.2,1
		c-8.3,0.3-16.5,0.8-24.8,1.2c-3,0.2-4.7,1.3-4.8,4.9c-0.1,3.6,1.2,4.4,4.5,4.8c16.9,2.2,33.8,4.4,50.6,7.1
		c11.9,1.9,23.7,4.5,35.5,6.8c1.2,0.2,2.2,1.2,3.1,3c-2.6,0-5.4,0.4-7.9-0.1c-12.1-2.1-24.1-4.6-36.3-6.6
		c-14.9-2.5-29.8-4.6-44.8-6.7c-5-0.7-7.2,2.1-8.2,9.8c19.8,8.5,41.5,12.4,61,21.9l-0.4,1.5c-1.3-0.3-2.6-0.4-3.8-0.8
		c-14.1-4.2-28.2-8.4-42.2-12.8c-4.7-1.5-9.3-3.1-13.8-5.1c-3.4-1.5-4.3,0.4-5.4,2.7c-1.3,2.7-0.1,4,2.1,5.1
		c15,7.5,30,14.8,44.8,22.4c12.3,6.4,24.5,13.2,36.7,19.9c1.4,0.8,2.7,1.8,3.7,3.7c-1.5-0.6-3.1-1-4.5-1.7c-13-6.6-26-13.2-39-19.8
		c-14.4-7.4-28.8-14.8-43.3-22c-1.3-0.7-3.9-0.3-5.1,0.6c-5.9,4.5-5.7,8-0.1,12.9c7.3,6.3,14.1,13.1,21.4,19.3
		c8.8,7.5,17.9,14.7,26.9,21.9c1.2,1,2.5,1.9,3.8,2.8c-0.4,0.5-0.9,1-1.3,1.5c-7.9-6.1-15.9-12.2-23.6-18.5
		c-10.2-8.2-20.1-16.8-30.4-24.9c-1.8-1.5-5-2.7-7.1-2.1c-5.1,1.4-5.4,4.9-2,9.1c8.4,10.5,16.5,21.2,25,31.6
		c7.6,9.4,15.7,18.3,23.3,27.7c4.9,6,9.4,12.4,14.1,18.7l-1.3,1c-4.9-5.5-9.9-10.9-14.7-16.4c-9.4-10.9-18.7-21.8-27.9-32.8
		c-7.4-8.9-14.4-18.1-21.6-27.1c-3.1-3.9-7.8-3.9-10.5,0.2c-0.5,0.7-0.2,2.2,0.2,3.1c5.5,10.6,11,21.2,16.6,31.7
		c4.7,8.9,9.6,17.8,14.4,26.7c3.4,6.4,6.6,12.8,9.8,19.2c-0.4,0.2-0.8,0.4-1.2,0.7c-4.2-7-8.5-13.9-12.4-21
		c-7.5-13.4-14.9-27-22.3-40.5c-2.3-4.2-4.5-8.5-6.7-12.8c-1.3-2.5-2.2-5.2-6.2-3.6c-3.9,1.5-5.7,3.4-4.1,7.8
		c2.2,6,3.8,12.2,5.8,18.3c5.3,16.5,10.7,33,16.1,49.5c2.9,8.8,5.9,17.6,8.8,26.3c0.3,1,0.3,2,0.4,3c-0.4,0.1-0.8,0.2-1.2,0.3
		c-1.2-3.6-2.4-7.2-3.6-10.8c-8.3-24.8-16.5-49.6-24.8-74.5c-1.2-3.7-2.8-7.4-3.7-11.2c-0.9-3.7-2.9-4.5-6.1-3.8
		c-3.2,0.8-4.8,2.4-4.2,6c1.6,8.8,3,17.6,4.4,26.5c2,12.9,3.9,25.8,5.8,38.6l-1.8,0.3c-1.2-7.1-2.3-14.2-3.7-21.2
		c-2.8-14.6-5.7-29.2-8.7-43.8c-0.3-1.4-2.3-2.4-3.5-3.6c-0.3,1.5-0.7,3-0.8,4.5c-0.1,6.9-0.2,13.9-0.2,20.8c0,14.9,0,29.7,0,44.6
		c0,8.7,0,17.4,0,26.1l0,0h-1.4c-0.5-10.3-1-20.7-1.3-31c-0.4-13.4-0.7-26.9-1-40.3c-0.1-6.2-0.3-12.4-0.1-18.6
		c0.1-4.6-1.4-6.2-6.2-6.1c-25.6,0.7-54-15.5-64.5-38c-3.9-8.5-5.9-17-6.2-25.8c-0.7-20.1-0.2-24.9,6.2-42.7
		c0.7-1.8,1.4-3.7,2.3-5.4c3.1-6.1,7.4-11.7,11.7-17c9.8-12,23.9-17.1,38-21.9c2.8-0.9,5.9-0.7,8.8-1.4c3.3-0.8,4.1-3.1,3.9-6.4
		c-0.7-16.2-1.3-75.7-1.8-92c3-12.9,4.2-10.3,5.1-11l0,0l0,0C74,95,72.1,131.8,72.5,142.8l13.2,0.7
		C88.5,132.5,88.9,131.9,91.4,120.7z M47.1,272.6c14.4,12.5,39.2,19,58.7,11.2c9.9-4,16.2-10.7,21-15.4
		c11.1-10.8,18.2-23.9,20.1-38.9c1.5-12.1,0-24.3-5.3-35.9c-5.3-11.8-12.4-21.6-22-28.9c-3.3-2.5-8.1-6.1-15.3-8.6
		c-6.6-2.6-14.7-4.4-23.1-2.4C29.3,166,14.8,244.5,47.1,272.6z"/>
	<path d="M151.5,181.9c7.3-5.1,14.6-10,21.8-15.3c10.8-7.9,21.3-16.1,32.2-23.8c4.2-3,9.2-5.1,13.8-7.6l0,0l0.8,1
		c-1.9,1.8-3.5,3.8-5.6,5.3c-16.4,11.1-32.8,22.2-49.3,33.1c-4.3,2.8-9.1,4.8-13.7,7.1C151.4,181.8,151.5,181.9,151.5,181.9z"/>
	<path d="M130.9,117.8c4.5-7.6,9.1-15.2,13.5-22.9c6.5-11.6,12.7-23.4,19.4-35c2.6-4.5,6.2-8.4,9.4-12.6l0,0l1.2,0.6
		c-1,2.4-1.6,5-2.9,7.1c-10.3,16.9-20.6,33.8-31.2,50.6C137.6,109.9,134,113.7,130.9,117.8C130.8,117.7,130.9,117.8,130.9,117.8z"/>
	<path d="M143.1,166c21.3-20.6,41.8-40.5,61.9-60.1l0,0C201.5,113.9,164.9,149.7,143.1,166z"/>
	<path d="M157.2,116.5c-2.5,3.7-4,5.7-8.2,11.4c-1.9,2.6-4.8,6.5-8.3,11.3l0,0c-0.4-0.2-0.8-0.5-1.2-0.7c0.8-1.2,1.5-2.4,2.3-3.6
		c0.5-0.7,8.6-12.8,15-22c5.7-8,18.4-25.6,35.9-48.4c0.3,0.2,0.7,0.5,1,0.7c-1.9,3.3-5,8.5-9.4,14.5c-2.5,3.4-2.6,3.3-10.6,13.6
		c-7.4,9.6-9.3,12.2-10.9,14.6C160.1,111.8,160.1,112.1,157.2,116.5z"/>
	<path d="M119.1,142.7c0-1.8-0.7-3.9,0-5.2c3.2-5.9,6.8-11.6,10.2-17.4l0,0l1.4,0.7l0,0C126.8,128.1,122.9,135.3,119.1,142.7
		C119.1,142.6,119.1,142.7,119.1,142.7z"/>
	<path d="M241.3,123.1l-1.2,1c-0.8,0.7-2,0.6-2.7-0.2c-0.9-0.9-1.8-1.9-1.7-2.8c0.1-0.9,0.7-1.9,1.4-2.7c0.8-1,2.4-1,3.1,0l1.4,1.9
		C242.3,121.2,242.1,122.4,241.3,123.1z"/>
	<path d="M226,168c0.7,0.7,0.6,1.8-0.1,2.4c-1.1,0.9-2,1.7-2.2,1.6c-1.4-0.9-2.9-2.2-3.3-3.7c-0.2-0.5,0.6-1.3,1.4-2.1
		c0.6-0.6,1.6-0.7,2.3,0L226,168z"/>
	<path d="M82.5,404.3c0.7,0.7,0.6,1.8-0.1,2.4c-1.1,0.9-2,1.7-2.2,1.6c-1.4-0.9-2.9-2.2-3.3-3.7c-0.2-0.5,0.6-1.3,1.4-2.1
		c0.6-0.6,1.6-0.7,2.3,0L82.5,404.3z"/>
	<path d="M238.2,273.8c0.7,0.7,0.6,1.8-0.1,2.4c-1.1,0.9-2,1.7-2.2,1.6c-1.4-0.9-2.9-2.2-3.3-3.7c-0.2-0.5,0.6-1.3,1.4-2.1
		c0.6-0.6,1.6-0.7,2.3,0L238.2,273.8z"/>
	<path d="M204.5,381.1c-1.9,1.6-3.1,2.7-4.3,3.8l0,0c-0.9-1.4-2.2-2.7-2.5-4.3c-0.1-0.7,1.8-2.6,2.6-2.5
		C201.6,378.3,202.6,379.7,204.5,381.1L204.5,381.1z"/>
	<path d="M165.3,380.9c2.7,3.6,3.3,6.4-1.5,8.4l0,0C161.7,386,161,383.3,165.3,380.9L165.3,380.9z"/>
	<path d="M212,326c2.7,3.6,3.3,6.4-1.5,8.4l0,0C208.3,331.1,207.7,328.4,212,326L212,326z"/>
	<path d="M200.6,45c0.7-0.8,2-0.7,2.6,0.1c0.7,0.9,1.3,1.6,1.2,2.2c0,0.6-0.4,1.3-0.8,1.9c-0.6,0.8-1.8,1-2.5,0.3
		c-0.8-0.7-1.6-1.5-2.2-2.4C198.7,46.9,199.5,46.1,200.6,45z"/>
	<path d="M216.2,93.8l-0.1-4.4c0-0.8,0.7-1.5,1.6-1.4c0.8,0.1,1.4,0.2,1.4,0.3c0.1,1.8,0,3.7-0.1,5.5c0,0.7-0.6,1.3-1.4,1.3l0,0
		C216.9,95.1,216.3,94.5,216.2,93.8z"/>
	<path d="M101.5,395.6l-0.1-4.4c0-0.8,0.7-1.5,1.6-1.4c0.8,0.1,1.4,0.2,1.4,0.3c0.1,1.8,0,3.7-0.1,5.5c0,0.7-0.6,1.3-1.4,1.3l0,0
		C102.2,397,101.6,396.4,101.5,395.6z"/>
	<path d="M107.8,25.3l-0.1-4.4c0-0.8,0.7-1.5,1.6-1.4c0.8,0.1,1.4,0.2,1.4,0.3c0.1,1.8,0,3.7-0.1,5.5c0,0.7-0.6,1.3-1.4,1.3l0,0
		C108.5,26.6,107.9,26,107.8,25.3z"/>
	<path d="M265.8,217.3c-1.7,1.6-2.8,2.7-3.9,3.7l0,0c-0.9-1.1-2.5-2.2-2.5-3.2c0-1.1,1.5-2.6,2.6-3C262.7,214.5,264,216,265.8,217.3
		C265.8,217.2,265.8,217.3,265.8,217.3z"/>
	<path d="M75.1,22.5c-1.7,1.6-2.8,2.7-3.9,3.7l0,0c-0.9-1.1-2.5-2.2-2.5-3.2c0-1.1,1.5-2.6,2.6-3C72.1,19.7,73.4,21.2,75.1,22.5
		L75.1,22.5z"/>
	<path d="M255.9,251.7l0.6-4.2c0.1-0.7,0.9-0.9,1.4-0.5c2.6,2.3,2.4,4.1-0.9,5.6C256.4,252.8,255.8,252.3,255.9,251.7z"/>
	<path d="M259.1,181.5c0.1,1.5,0.3,3,0.4,4.5c0,0.4-0.3,0.7-0.6,0.7c-1,0-2.1,0-2.1-0.1c-0.2-1.7-0.1-3.4-0.1-5
		c0-0.3,0.3-0.6,0.6-0.6h1.2C258.8,180.9,259.1,181.1,259.1,181.5z"/>
	<path d="M144.1,27.2c0.1,1.5,0.3,3,0.4,4.5c0,0.4-0.3,0.7-0.6,0.7c-1,0-2.1,0-2.1-0.1c-0.2-1.7-0.1-3.4-0.1-5
		c0-0.3,0.3-0.6,0.6-0.6h1.2C143.8,26.6,144.1,26.9,144.1,27.2z"/>
	<path d="M350.5,441.5c-42.3,0-76.5,34.3-76.5,76.5c0,42.3,34.3,76.5,76.5,76.5S427,560.3,427,518
		C427,475.7,392.7,441.5,350.5,441.5z M350.5,580.7c-34.6,0-62.7-28.1-62.7-62.7c0-34.6,28.1-62.7,62.7-62.7s62.7,28.1,62.7,62.7
		C413.2,552.6,385.1,580.7,350.5,580.7z"/>
	<path d="M350.3,448.3L350.3,448.3c-1.2,0-2.2-1-2.2-2.2V275.5c0-1.2,1-2.2,2.2-2.2h0c1.2,0,2.2,1,2.2,2.2v170.6
		C352.5,447.3,351.5,448.3,350.3,448.3z"/>
	<path d="M350.5,759.5L350.5,759.5c-1.2,0-2.2-1-2.2-2.2V586.7c0-1.2,1-2.2,2.2-2.2l0,0c1.2,0,2.2,1,2.2,2.2v170.6
		C352.7,758.5,351.7,759.5,350.5,759.5z"/>
	<path d="M415.8,506.2L415.8,506.2c-0.2-1.2,0.6-2.3,1.8-2.5l168-29.6c1.2-0.2,2.3,0.6,2.5,1.8l0,0c0.2,1.2-0.6,2.3-1.8,2.5
		l-168,29.6C417.1,508.2,416,507.4,415.8,506.2z"/>
	<path d="M412.3,495L412.3,495c-0.4-1.1,0.2-2.4,1.3-2.8l160.3-58.3c1.1-0.4,2.4,0.2,2.8,1.3l0,0c0.4,1.1-0.2,2.4-1.3,2.8
		l-160.3,58.3C414,496.8,412.7,496.2,412.3,495z"/>
	<path d="M393.1,466.2L393.1,466.2c-0.9-0.8-1-2.1-0.3-3.1l109.7-130.7c0.8-0.9,2.1-1,3.1-0.3l0,0c0.9,0.8,1,2.1,0.3,3.1L396.1,466
		C395.3,466.9,394,467,393.1,466.2z"/>
	<path d="M383.3,459.9L383.3,459.9c-1-0.6-1.4-1.9-0.8-3l85.3-147.7c0.6-1,1.9-1.4,3-0.8l0,0c1,0.6,1.4,1.9,0.8,3l-85.3,147.7
		C385.6,460.1,384.3,460.5,383.3,459.9z"/>
	<path d="M373.7,454L373.7,454c-1.1-0.4-1.7-1.7-1.3-2.8l58.3-160.3c0.4-1.1,1.7-1.7,2.8-1.3l0,0c1.1,0.4,1.7,1.7,1.3,2.8
		l-58.3,160.3C376,453.8,374.8,454.4,373.7,454z"/>
	<path d="M408.4,484.3L408.4,484.3c-0.6-1-0.2-2.4,0.8-3L556.9,396c1-0.6,2.4-0.2,3,0.8l0,0c0.6,1,0.2,2.4-0.8,3l-147.7,85.3
		C410.3,485.7,409,485.3,408.4,484.3z"/>
	<path d="M401.1,475.4L401.1,475.4c-0.8-0.9-0.7-2.3,0.3-3.1l130.7-109.7c0.9-0.8,2.3-0.7,3.1,0.3l0,0c0.8,0.9,0.7,2.3-0.3,3.1
		L404.2,475.6C403.3,476.4,401.9,476.3,401.1,475.4z"/>
	<path d="M592.1,518L592.1,518c0,1.2-1,2.2-2.2,2.2H419.3c-1.2,0-2.2-1-2.2-2.2l0,0c0-1.2,1-2.2,2.2-2.2h170.6
		C591.1,515.8,592.1,516.8,592.1,518z"/>
	<path d="M587.1,559.9L587.1,559.9c-0.2,1.2-1.3,2-2.5,1.8l-168-29.6c-1.2-0.2-2-1.3-1.8-2.5v0c0.2-1.2,1.3-2,2.5-1.8l168,29.6
		C586.5,557.6,587.3,558.8,587.1,559.9z"/>
	<path d="M579.4,601.4L579.4,601.4c-0.4,1.1-1.7,1.7-2.8,1.3l-160.3-58.3c-1.1-0.4-1.7-1.7-1.3-2.8l0,0c0.4-1.1,1.7-1.7,2.8-1.3
		l160.3,58.3C579.2,599.1,579.8,600.3,579.4,601.4z"/>
	<path d="M559.9,639.4L559.9,639.4c-0.6,1-1.9,1.4-3,0.8l-147.7-85.3c-1-0.6-1.4-1.9-0.8-3l0,0c0.6-1,1.9-1.4,3-0.8l147.7,85.3
		C560.2,637,560.5,638.4,559.9,639.4z"/>
	<path d="M535.1,673.1L535.1,673.1c-0.8,0.9-2.1,1-3.1,0.3L401.4,563.7c-0.9-0.8-1-2.1-0.3-3.1l0,0c0.8-0.9,2.1-1,3.1-0.3L534.9,670
		C535.8,670.8,535.9,672.2,535.1,673.1z"/>
	<path d="M361.7,452.6L361.7,452.6c-1.2-0.2-2-1.3-1.8-2.5l29.6-168c0.2-1.2,1.3-2,2.5-1.8v0c1.2,0.2,2,1.3,1.8,2.5l-29.6,168
		C364.1,452.1,362.9,452.9,361.7,452.6z"/>
	<path d="M505.2,702.6L505.2,702.6c-0.9,0.8-2.3,0.7-3.1-0.3L392.5,571.6c-0.8-0.9-0.7-2.3,0.3-3.1l0,0c0.9-0.8,2.3-0.7,3.1,0.3
		l109.7,130.7C506.3,700.4,506.2,701.8,505.2,702.6z"/>
	<path d="M470.7,727.1L470.7,727.1c-1,0.6-2.4,0.2-3-0.8l-85.3-147.7c-0.6-1-0.2-2.4,0.8-3l0,0c1-0.6,2.4-0.2,3,0.8l85.3,147.7
		C472.1,725.1,471.8,726.5,470.7,727.1z"/>
	<path d="M433.1,745.3L433.1,745.3c-1.1,0.4-2.4-0.2-2.8-1.3L372,583.7c-0.4-1.1,0.2-2.4,1.3-2.8l0,0c1.1-0.4,2.4,0.2,2.8,1.3
		l58.3,160.3C434.8,743.6,434.2,744.9,433.1,745.3z"/>
	<path d="M391.9,753.1L391.9,753.1c-1.2,0.2-2.3-0.6-2.5-1.8l-29.6-168c-0.2-1.2,0.6-2.3,1.8-2.5l0,0c1.2-0.2,2.3,0.6,2.5,1.8
		l29.6,168C393.9,751.7,393.1,752.8,391.9,753.1z"/>
	<path d="M350.3,518"/>
</g>
<path d="M97.8,213"/>
<g>
	<path d="M358.7,193.5c-35.3-3.9-59.2-26.7-64.5-38c-3.7-8-5.2-16.5-5.2-16.5c-0.5-3.1-0.9-6.1-1-9.3c-0.7-20.1-0.2-24.9,6.2-42.7
		c0.7-1.8,1.4-3.7,2.3-5.4c3.1-6.1,7.4-11.7,11.7-17c14.2-17.5,34.4-21.1,38-21.9c0.6-0.1,4.4-1,8.8-1.4c40-3.9,65.8,20.2,65.8,20.2
		c25.9,24.2,29.7,64.2,16.3,92.3c-3.2,6.8-11.3,20.9-27.7,30.8C388.8,196.9,368.4,194.6,358.7,193.5z M340.5,168.8
		c12.6,18,35.2,21,53.1,12.6c9.7-4.5,16.2-10.7,21-15.4c11.1-10.8,18.2-23.9,20.1-38.9c1.5-12.1,0-24.3-5.3-35.9
		c-5.3-11.8-12.4-21.6-22-28.9c-3.3-2.5-8.1-6.1-15.3-8.6c-6.6-2.6-14.8-1.6-23.1,0.8C328.6,66.3,321.7,141.9,340.5,168.8z"/>
	<path d="M192.6,573.8"/>
</g>
<path d="M147.3,620.8"/>
</svg>
