<?xml version="1.0" encoding="utf-8"?>
<!-- Generator: Adobe Illustrator 23.0.6, SVG Export Plug-In . SVG Version: 6.00 Build 0)  -->
<svg version="1.1" id="Calque_1" xmlns="http://www.w3.org/2000/svg" xmlns:xlink="http://www.w3.org/1999/xlink" x="0px" y="0px"
	 viewBox="0 0 496 488.8" style="enable-background:new 0 0 496 488.8;" xml:space="preserve">
<path d="M51.9,440.8H60c2.2,0,3.9,1.8,3.9,3.9v8.1c0,2.2-1.8,3.9-3.9,3.9h-8.1c-2.2,0-3.9-1.8-3.9-3.9v-8.1
	C48,442.6,49.8,440.8,51.9,440.8z"/>
<path d="M83.9,440.8H92c2.2,0,3.9,1.8,3.9,3.9v8.1c0,2.2-1.8,3.9-3.9,3.9h-8.1c-2.2,0-3.9-1.8-3.9-3.9v-8.1
	C80,442.6,81.8,440.8,83.9,440.8z"/>
<path d="M115.9,440.8h8.1c2.2,0,3.9,1.8,3.9,3.9v8.1c0,2.2-1.8,3.9-3.9,3.9h-8.1c-2.2,0-3.9-1.8-3.9-3.9v-8.1
	C112,442.6,113.8,440.8,115.9,440.8z"/>
<path d="M387.9,440.8H444c2.2,0,3.9,1.8,3.9,3.9v8.1c0,2.2-1.8,3.9-3.9,3.9h-56.1c-2.2,0-3.9-1.8-3.9-3.9v-8.1
	C384,442.6,385.8,440.8,387.9,440.8z"/>
<g id="Coding">
	<path d="M336,0H160c-22.1,0-40,17.9-40,40v88c0,22.1,17.9,40,40,40h16v48c0,4.4,3.6,8,8,8c2.3,0,4.6-1,6.1-2.8l45.6-53.2H336
		c22.1,0,40-17.9,40-40V40C376,17.9,358.1,0.1,336,0z M336,152H232c-2.3,0-4.6,1-6.1,2.8L192,194.4V160c0-4.4-3.6-8-8-8h-24
		c-13.3,0-24-10.7-24-24V40c0-13.3,10.7-24,24-24h176c13.3,0,24,10.7,24,24v88C360,141.3,349.3,152,336,152z"/>
	<path d="M104,216c0,4.4,3.6,8,8,8h16c4.4,0,8-3.6,8-8s-3.6-8-8-8h-16C107.6,208,104,211.6,104,216z"/>
	<path d="M128,240h-16c-4.4,0-8,3.6-8,8s3.6,8,8,8h16c4.4,0,8-3.6,8-8S132.5,240,128,240z"/>
	<path d="M128,272h-16c-4.4,0-8,3.6-8,8s3.6,8,8,8h16c4.4,0,8-3.6,8-8S132.5,272,128,272z"/>
	<path d="M128,304h-16c-4.4,0-8,3.6-8,8s3.6,8,8,8h16c4.4,0,8-3.6,8-8S132.5,304,128,304z"/>
	<path d="M128,336h-16c-4.4,0-8,3.6-8,8s3.6,8,8,8h16c4.4,0,8-3.6,8-8S132.5,336,128,336z"/>
	<path d="M232,224h152c4.4,0,8-3.6,8-8s-3.6-8-8-8H232c-4.4,0-8,3.6-8,8S227.6,224,232,224z"/>
	<path d="M224,256h128c4.4,0,8-3.6,8-8s-3.6-8-8-8H224c-4.4,0-8,3.6-8,8S219.6,256,224,256z"/>
	<path d="M160,288h96c4.4,0,8-3.6,8-8s-3.6-8-8-8h-96c-4.4,0-8,3.6-8,8S155.6,288,160,288z"/>
	<path d="M160,320h96c4.4,0,8-3.6,8-8s-3.6-8-8-8h-96c-4.4,0-8,3.6-8,8S155.6,320,160,320z"/>
	<path d="M160,352h96c4.4,0,8-3.6,8-8s-3.6-8-8-8h-96c-4.4,0-8,3.6-8,8S155.6,352,160,352z"/>
	<path d="M155.6,86.7l48,32c3.7,2.5,8.6,1.5,11.1-2.2s1.5-8.6-2.2-11.1L176,81l35.7-17.8c4-2,5.6-6.8,3.6-10.7
		c-2-4-6.8-5.6-10.7-3.6l0,0l-48,24c-4,2-5.6,6.8-3.6,10.7C153.5,84.9,154.4,85.9,155.6,86.7L155.6,86.7z"/>
	<path d="M284.5,63.2L320.2,81l-36.5,24.4c-3.7,2.5-4.7,7.4-2.2,11.1s7.4,4.7,11.1,2.2l48-32c3.7-2.4,4.7-7.4,2.2-11.1
		c-0.8-1.2-1.8-2.1-3.1-2.7l-48-24c-4-2-8.8-0.4-10.7,3.6C278.9,56.4,280.5,61.3,284.5,63.2L284.5,63.2z"/>
	<path d="M229.3,135.5c4.2,1.5,8.7-0.6,10.2-4.8l0,0l32-88c1.7-4.1-0.3-8.8-4.4-10.4c-4.1-1.7-8.8,0.3-10.4,4.4
		c-0.1,0.2-0.1,0.4-0.2,0.5l-32,88C223,129.4,225.1,134,229.3,135.5L229.3,135.5z"/>
	<path d="M160,256h32c4.4,0,8-3.6,8-8s-3.6-8-8-8h-32c-4.4,0-8,3.6-8,8S155.6,256,160,256z"/>
	<path d="M360,280c0-4.4-3.6-8-8-8h-64c-4.4,0-8,3.6-8,8s3.6,8,8,8h64C356.5,288,360,284.4,360,280z"/>
	<path d="M304,304h-16c-4.4,0-8,3.6-8,8s3.6,8,8,8h16c4.4,0,8-3.6,8-8S308.5,304,304,304z"/>
	<path d="M304,336h-16c-4.4,0-8,3.6-8,8s3.6,8,8,8h16c4.4,0,8-3.6,8-8S308.5,336,304,336z"/>
</g>
<path d="M480,408.9L480,408.9V144.8c0-22.1-17.9-40-40-40h-51.5c-3.7,0-6.6,3-6.6,6.6v2.7c0,3.7,3,6.6,6.6,6.6H440
	c13.3,0,24,10.7,24,24v264c0,0,0,0,0,0h-16c0,0,0,0,0,0v-256c0-8.8-7.2-16-16-16h-48l0,0c-1.7,0-3.1,1.2-3.6,2.8
	c-0.6,2.4-1.5,4.7-2.5,7c-0.7,1.4-0.4,3.1,0.7,4.2c1.4,1.3,3.3,2.1,5.4,2.1h48c0,0,0,0,0,0v272c0,0,0,0,0,0h48c0,0,0,0,0,0v24
	c0,13.3-10.7,24-24,24H40c-13.3,0-24-10.7-24-24v-24c0,0,0,0,0,0h164.8c0,0,0,0,0,0c11.5,10.3,26.2,16,41.8,16h50.7
	c15.6,0,30.3-5.7,41.8-16c0,0,0,0,0,0h97.5c1.9,0,3.4-1.5,3.4-3.4v-9.1c0-1.9-1.5-3.4-3.4-3.4H308.7c0,0,0,0,0,0l-2.3,2.3
	c-8.7,8.7-20.6,13.7-33,13.7h-50.7c-12.5,0-24.2-4.8-33-13.7l-2.3-2.3c0,0,0,0,0,0H64c0,0,0,0,0,0v-256c0,0,0,0,0,0h48
	c0,0,0.1,0,0.1,0c4.1-0.1,6.8-4.4,5.2-8.2c-0.7-1.6-1.2-3.3-1.7-5c-0.4-1.6-1.9-2.8-3.6-2.8l0,0H64c-8.8,0-16,7.2-16,16v256
	c0,0,0,0,0,0H32c0,0,0,0,0,0v-264c0-13.3,10.7-24,24-24h51.5c3.7,0,6.6-3,6.6-6.6v-2.7c0-3.7-3-6.6-6.6-6.6H56
	c-22.1,0-40,17.9-40,40v264c0,0,0,0,0,0H0c0,0,0,0,0,0v40c0,22.1,17.9,40,40,40h416c22.1,0,40-17.9,40-40v-40c0,0,0,0,0,0H480z"/>
</svg>
