<svg xmlns="http://www.w3.org/2000/svg" viewBox="0 0 233.62 344.68"><title>apache</title><g id="Calque_2" data-name="Calque 2"><g id="Calque_2-2" data-name="Calque 2"><path d="M193.92,40.7c-6.86,7.84-10.2,11.21-29.88,36.36C137,111.67,104.51,163.22,79,209.08c-9.78,17.56-19.1,35.39-28.34,52.57l9.49,15c-1.82-5.39-3.67-10.84-5.43-16.05,8.66,0,17.48.7,26.14-.19,9-.93,19.6-8.9,24-16-4.45,2.32-9,4.6-16.33,4.84a.56.56,0,0,1-.29-1c6.07-3,12.6-5.3,18.19-9,5.3-3.53,15.47-16.6,14.55-16.27S99.5,239.42,81.3,229.73c3.64-.65,7.25-1.77,10.78-2.61,22.56-5.42,39.54-18.58,52.78-37.31,8.31-12.07,11.41-18,17.8-31.22a63.44,63.44,0,0,1-13.45,1.51c17.67-5.8,21.73-12,28.14-21.33a44.45,44.45,0,0,1-14.49,5c19.85-12.22,24.48-21.46,32.18-37.53a52.64,52.64,0,0,1-14.9,3.56A162.45,162.45,0,0,0,198.6,95.62c8.68-8.1,16.55-19.9,22.87-29.76a78,78,0,0,0,10.74-25.7,58.18,58.18,0,0,0,.3-24l-.32-.91C230.24,9.61,226.84,3,218.84.63a15.23,15.23,0,0,0-9,.1,60.8,60.8,0,0,0-13.46,6.6C191.25,10.7,183,16.16,177.2,21.7a620.79,620.79,0,0,0-79.47,92.89c-22.52,32.33-40.8,66.73-50.15,105.35a23,23,0,0,1-.89,2.46h0l-12-13.65c4.21,12.18,9.22,23.86,8.36,38.08h0l-15.87-4.26,10.26,8.7-15.88,5.31.14.93H42.8L0,343.44l2,1.24c1.78-2.53,3.91-4.89,5.3-7.62C22.33,307.38,36.61,277.27,52.41,248c93.9-166.72,134-202.1,141.64-209.45s15.28-15.16,15.28-15.16S198.38,35.59,193.92,40.7Z"/></g></g></svg>