<svg xmlns="http://www.w3.org/2000/svg" viewBox="0 0 171.56 121.85"><defs><style>.cls-1{fill:#3282b8;}</style></defs><title>js</title><g id="Calque_2" data-name="Calque 2"><g id="Calque_1-2" data-name="Calque 1"><path class="cls-1" d="M11.6,50.7A4,4,0,0,0,12,49.29q0-1-.87-1a4.21,4.21,0,0,0-1.41.46,4.56,4.56,0,0,1-1.79.45,2.37,2.37,0,0,1-1.8-.91A12.92,12.92,0,0,0,5,47.14a1.44,1.44,0,0,0-.88-.24,3.33,3.33,0,0,0-2.43,1.48A4.34,4.34,0,0,0,.43,51,2.54,2.54,0,0,0,1,52.73a6.17,6.17,0,0,0,3.72,2.12,19.2,19.2,0,0,1,6.58-3.62C11.42,51.05,11.52,50.87,11.6,50.7Z"/><path class="cls-1" d="M19.21,50.23A15.85,15.85,0,0,0,21.7,41V1.51C21.7.5,21.29,0,20.47,0a5.76,5.76,0,0,0-2.62.9,9,9,0,0,0-2.51,2,3.67,3.67,0,0,0-.7,2.36V45.81a14.07,14.07,0,0,1-.73,4.79,24.44,24.44,0,0,1,4.44-.4Z"/><path class="cls-1" d="M31.13,37.16a4,4,0,0,0,1.65-1A12.93,12.93,0,0,1,41,33.05a15.17,15.17,0,0,1,6,1.44,2.9,2.9,0,0,0,1.09.31.84.84,0,0,0,.83-.61,6.4,6.4,0,0,0,.23-2A6.35,6.35,0,0,0,48.88,30a1.94,1.94,0,0,0-.92-.94,11.14,11.14,0,0,0-5-1.09,14.07,14.07,0,0,0-6.77,1.64,12.57,12.57,0,0,0-4.9,4.76,4.23,4.23,0,0,0-.71,2.15Q30.56,37.16,31.13,37.16Z"/><path class="cls-1" d="M32,21.66a5.5,5.5,0,0,0,2-1A15.13,15.13,0,0,1,42.69,18q8.24,0,8.23,10.37v20.5c0,1,.41,1.51,1.23,1.51A4.41,4.41,0,0,0,53.71,50a6.75,6.75,0,0,0,1.69-.91,6.12,6.12,0,0,0,1.34-1.35,2.85,2.85,0,0,0,.54-1.65V27.07a21.62,21.62,0,0,0-.86-6.49,11.21,11.21,0,0,0-2.48-4.39,9.44,9.44,0,0,0-4-2.48,17.14,17.14,0,0,0-5.31-.77,15,15,0,0,0-12.09,5.83,3.94,3.94,0,0,0-1.09,2.32C31.48,21.47,31.65,21.66,32,21.66Z"/><path class="cls-1" d="M44.59,50.26a12.17,12.17,0,0,0,3.66-2.2,3.17,3.17,0,0,0,.91-2.46c0-.87-.16-1.3-.49-1.3a2.19,2.19,0,0,0-1,.38,9.07,9.07,0,0,1-2.57,1,11.38,11.38,0,0,1-2.56.36q-3.53,0-4.89-1.81t-1.37-5.81a1.19,1.19,0,0,0-.28-.85.91.91,0,0,0-.67-.28,4.81,4.81,0,0,0-2.81,1.27,4.67,4.67,0,0,0-1.8,4,8.3,8.3,0,0,0,2.48,6.1q2.47,2.47,7.16,2.48A11.45,11.45,0,0,0,44.59,50.26Z"/><path class="cls-1" d="M91.45,12.94a6.84,6.84,0,0,0-2.65.65,6,6,0,0,0-2.37,1.67,5.92,5.92,0,0,0-1,2.21l-9.5,30.76a3.19,3.19,0,0,0-.21,1c0,.75.4,1.13,1.2,1.13a5.63,5.63,0,0,0,3.36-1.27,6.35,6.35,0,0,0,2.33-3.27l9.78-30.9a3,3,0,0,0,.17-.84,1.19,1.19,0,0,0-.3-.85A1,1,0,0,0,91.45,12.94Z"/><path class="cls-1" d="M72.08,45c.35,1.06.81,1.59,1.37,1.59s1.09-.72,1.71-2.17a10.41,10.41,0,0,0,.93-4.13,10.7,10.7,0,0,0-.49-2.6l-7.1-23.2c-.31-1-.77-1.51-1.37-1.51a5.13,5.13,0,0,0-2.75,1.26,3.42,3.42,0,0,0-1.68,2.53,4,4,0,0,0,.24,1.13Z"/><path class="cls-1" d="M99.22,21.66a5.57,5.57,0,0,0,2-1A15.13,15.13,0,0,1,109.91,18q8.22,0,8.23,10.37v20.5c0,1,.41,1.51,1.23,1.51a4.45,4.45,0,0,0,1.56-.34,6.75,6.75,0,0,0,1.69-.91A6.12,6.12,0,0,0,124,47.78a2.85,2.85,0,0,0,.54-1.65V27.07a21.62,21.62,0,0,0-.86-6.49,11.34,11.34,0,0,0-2.48-4.39,9.44,9.44,0,0,0-4-2.48,17.14,17.14,0,0,0-5.31-.77,15,15,0,0,0-12.09,5.83,3.94,3.94,0,0,0-1.09,2.32C98.7,21.47,98.87,21.66,99.22,21.66Z"/><path class="cls-1" d="M98.34,37.16a3.93,3.93,0,0,0,1.66-1,12.93,12.93,0,0,1,8.22-3.13,15.17,15.17,0,0,1,6,1.44,2.9,2.9,0,0,0,1.09.31.84.84,0,0,0,.83-.61,6.47,6.47,0,0,0,.22-2A6.43,6.43,0,0,0,116.1,30a1.94,1.94,0,0,0-.92-.94,11.17,11.17,0,0,0-5-1.09,14.07,14.07,0,0,0-6.77,1.64,12.67,12.67,0,0,0-4.91,4.76,4.3,4.3,0,0,0-.7,2.15C97.78,37,98,37.16,98.34,37.16Z"/><path class="cls-1" d="M111.81,50.26a12,12,0,0,0,3.65-2.2,3.18,3.18,0,0,0,.92-2.46c0-.87-.17-1.3-.49-1.3a2.19,2.19,0,0,0-1,.38,9.19,9.19,0,0,1-2.57,1,11.38,11.38,0,0,1-2.57.36q-3.51,0-4.88-1.81c-.92-1.2-1.37-3.14-1.37-5.81a1.19,1.19,0,0,0-.28-.85.91.91,0,0,0-.67-.28,4.81,4.81,0,0,0-2.81,1.27,4.67,4.67,0,0,0-1.8,4,8.6,8.6,0,0,0,.74,3.59c.14-.08.25-.18.39-.25a4.88,4.88,0,0,1,2.31-.67c.82,0,1.23.5,1.23,1.51v3.44a11.66,11.66,0,0,0,5,1A11.49,11.49,0,0,0,111.81,50.26Z"/><path class="cls-1" d="M3.16,60.57a23.6,23.6,0,0,1,5.44-3.5A13.75,13.75,0,0,1,14.1,56a10.7,10.7,0,0,1,3.53.63c1.21.42,2.29.84,3.25,1.27a6.2,6.2,0,0,0,2.29.63,5.54,5.54,0,0,0,3.14-1.37c1.21-.92,1.82-1.83,1.82-2.75s-.57-1.56-1.71-2.23a12.87,12.87,0,0,0-3.92-1.47,20.22,20.22,0,0,0-3.29-.45l-.06.08q-2.55,3.61-5.71,3.62a.73.73,0,0,1-.51-.21.74.74,0,0,1-.23-.56,4.45,4.45,0,0,1,.6-1.23,8.07,8.07,0,0,0,.61-1.33,21.13,21.13,0,0,0-2.58.63,10.32,10.32,0,0,1-.81,1.33,6,6,0,0,1-1.95,1.69,5.54,5.54,0,0,1-2.72.7,6.52,6.52,0,0,1-1.1-.1,22.27,22.27,0,0,0-2.82,2.84,13.57,13.57,0,0,0-1.26,1.9A4,4,0,0,0,0,61.31c0,.56.26.84.77.84A6.52,6.52,0,0,0,3.16,60.57Z"/><path class="cls-1" d="M30.3,82.26a9.26,9.26,0,0,0-1-2.42,11.27,11.27,0,0,0-1.71-2.18,11.53,11.53,0,0,0-2.6-2A22.73,22.73,0,0,0,21.32,74a33.4,33.4,0,0,0-5-1.3,36.6,36.6,0,0,1-4.47-1.09,6.93,6.93,0,0,1-2.63-1.59,5,5,0,0,1-1.43-2.6,21.12,21.12,0,0,1-.33-4.22c0-.56-.11-.93-.34-1.1a1.48,1.48,0,0,0-1-.27,5.32,5.32,0,0,0-3.06,1.37A6.31,6.31,0,0,0,.88,66.13a6.3,6.3,0,0,0-.32,2c0,.61,0,1.16.07,1.64A14,14,0,0,0,1,71.58a7.41,7.41,0,0,0,.81,2,9.76,9.76,0,0,0,1.53,1.84A10.55,10.55,0,0,0,5.71,77.1a20.2,20.2,0,0,0,3.52,1.38,31.86,31.86,0,0,0,4.8,1,22.74,22.74,0,0,1,3.74.86,14.89,14.89,0,0,1,2.69,1.16,6.36,6.36,0,0,1,1.79,1.55,9.51,9.51,0,0,1,1.11,1.65,6.47,6.47,0,0,1,.56,1.88,16.66,16.66,0,0,1,.23,1.83c0,.45,0,1.07,0,1.86a13.73,13.73,0,0,1-.85,4.47A10.38,10.38,0,0,1,20.71,99a1.57,1.57,0,0,0-.57,1,.64.64,0,0,0,.74.71,6.14,6.14,0,0,0,3.06-1,14.51,14.51,0,0,0,3.25-2.65,13.71,13.71,0,0,0,2.62-4.24,13.88,13.88,0,0,0,1.06-5.38c0-1,0-1.89-.11-2.65A15.77,15.77,0,0,0,30.3,82.26Z"/><path class="cls-1" d="M19,94.74a7,7,0,0,0-1.56.6,6.83,6.83,0,0,1-2.87.6,8.79,8.79,0,0,1-3.18-.53A12.9,12.9,0,0,1,8,93.13,4.38,4.38,0,0,0,5.31,91.9c-1.24,0-2.64.77-4.18,2.32a2.37,2.37,0,0,0-.78,1.72,3,3,0,0,0,1.16,2.21A13.23,13.23,0,0,0,5.92,101a14.58,14.58,0,0,0,4.7.69,12.76,12.76,0,0,0,4.44-.73A7.39,7.39,0,0,0,18,99.23a8.94,8.94,0,0,0,1.43-1.92,3.4,3.4,0,0,0,.45-1.44C19.86,95.12,19.57,94.74,19,94.74Z"/><path class="cls-1" d="M45.07,65.14a17.6,17.6,0,0,0-5.91,5,7.21,7.21,0,0,0-.7,1.12,2.77,2.77,0,0,0-.39,1.17c0,.39.17.59.5.59a6.12,6.12,0,0,0,1.82-1A17.87,17.87,0,0,1,50.7,68.59,12.8,12.8,0,0,1,56.07,70a5.91,5.91,0,0,0,2.39.63,4.07,4.07,0,0,0,2.61-1.25c.93-.83,1.4-1.54,1.4-2.12a2.2,2.2,0,0,0-1-1.66,9.6,9.6,0,0,0-3.62-1.51,20.54,20.54,0,0,0-4.54-.52A18.27,18.27,0,0,0,45.07,65.14Z"/><path class="cls-1" d="M62.72,93.48a3.13,3.13,0,0,0-1.2.47c-.56.32-1.16.68-1.81,1.08A10.79,10.79,0,0,1,57,96.1a15.17,15.17,0,0,1-3.83.47q-9.84,0-9.84-13.81a34.41,34.41,0,0,1,.52-5.88c.36-2,.53-3,.53-3q0-1-.84-1a5.49,5.49,0,0,0-2.81,1.07,8.28,8.28,0,0,0-2.47,2.31q-1.58,2.39-1.58,8.26,0,8.33,3.55,12.78t10.94,4.45a15,15,0,0,0,5.08-.88,14.06,14.06,0,0,0,4-2.11,13.88,13.88,0,0,0,2.46-2.45,3.65,3.65,0,0,0,.91-2Q63.56,93.48,62.72,93.48Z"/><path class="cls-1" d="M89.81,64.4a11.44,11.44,0,0,0-4.2-.87c-2.21,0-4.56,1.25-7.07,3.76q-.84.84-1.23.84c-.33,0-.49-.37-.49-1.12V65c0-1-.41-1.51-1.23-1.51a5.77,5.77,0,0,0-3.36,1.26A3.79,3.79,0,0,0,70.49,68v6.82c0,.86.26,1.3.77,1.3a2.24,2.24,0,0,0,1.3-.67c.59-.52,1.4-1.26,2.45-2.23s1.78-1.64,2.21-2,1-.79,1.67-1.3a7.24,7.24,0,0,1,1.79-1,5.18,5.18,0,0,1,1.62-.26,7,7,0,0,1,3,.77,6.48,6.48,0,0,0,2.68.88A4.36,4.36,0,0,0,90.53,69,3.27,3.27,0,0,0,92,66.69C92,65.75,91.27,65,89.81,64.4Z"/><path class="cls-1" d="M75.73,75.83a4,4,0,0,0-2,.9,11.73,11.73,0,0,0-2.25,2,4.35,4.35,0,0,0-1,3V99.46c0,1,.41,1.51,1.23,1.51a5.75,5.75,0,0,0,3.37-1.25,3.78,3.78,0,0,0,1.73-3.18V77.34C76.82,76.33,76.45,75.83,75.73,75.83Z"/><path class="cls-1" d="M98.73,46.13A7.58,7.58,0,0,0,97,47.6a3.31,3.31,0,0,0-.63,2.14v5.1c0,1,.41,1.51,1.23,1.51a5,5,0,0,0,2.3-.65A7.3,7.3,0,0,0,102,54a3.48,3.48,0,0,0,.64-2.18V50.16a7.59,7.59,0,0,1-2.19-1.52A8.46,8.46,0,0,1,98.73,46.13Z"/><path class="cls-1" d="M101.43,63.53a5,5,0,0,0-2.31.66A7.56,7.56,0,0,0,97,65.92a3.38,3.38,0,0,0-.63,2.14v31.4c0,1,.41,1.51,1.23,1.51a5.07,5.07,0,0,0,2.3-.65A7.5,7.5,0,0,0,102,98.61a3.48,3.48,0,0,0,.64-2.18V65C102.66,64,102.25,63.53,101.43,63.53Z"/><path class="cls-1" d="M127.86,63.53a13.79,13.79,0,0,0-8.22,3,2.74,2.74,0,0,1-1.37.7q-.57,0-.57-1.26V65c0-1-.41-1.51-1.23-1.51a6,6,0,0,0-3.27,1.24,3.63,3.63,0,0,0-1.82,3v5.91c0,.75.23,1.13.7,1.13a3.4,3.4,0,0,0,1.76-.88,46.17,46.17,0,0,1,6.31-4.22,11,11,0,0,1,5.11-1.16,8.19,8.19,0,0,1,3.64.77,7.12,7.12,0,0,1,2.58,2.16A11.64,11.64,0,0,1,133.14,75a25.4,25.4,0,0,1,.89,4.62,53.57,53.57,0,0,1,.27,5.7q0,7.38-1.34,11.14a11.1,11.1,0,0,1-.77,1.69c-.28.49-.5.85-.65,1.07a1,1,0,0,0-.23.55c0,.44.24.66.74.66.79,0,1.83-.6,3.11-1.82a15.38,15.38,0,0,0,3.21-4.5,24.28,24.28,0,0,0,1.94-6,34.82,34.82,0,0,0,.7-6.93q0-9.1-3.44-13.41T127.86,63.53Z"/><path class="cls-1" d="M112.61,101.14c-.83,0-1.23.53-1.23,1.58v17.62c0,1,.4,1.51,1.23,1.51a5.64,5.64,0,0,0,3.35-1.3,3.92,3.92,0,0,0,1.74-3.24V106.13a3.55,3.55,0,0,0-1.16-3C114.86,101.8,113.54,101.14,112.61,101.14Z"/><path class="cls-1" d="M130.15,95.59s-.64.17-1.85.53a14.8,14.8,0,0,1-4.13.52,7.69,7.69,0,0,1-4.29-1q-2.17-1.44-2.18-5.28V76.25c0-1-.36-1.51-1.09-1.51a4.24,4.24,0,0,0-2,.86,11.87,11.87,0,0,0-2.25,2,4.47,4.47,0,0,0-.94,3.06V93.69a7.71,7.71,0,0,0,.77,3.69,6.67,6.67,0,0,0,2.6,2.53,13.16,13.16,0,0,0,6.93,1.8,11.7,11.7,0,0,0,6.5-1.76c1.8-1.17,2.71-2.37,2.71-3.59A.67.67,0,0,0,130.15,95.59Z"/><path class="cls-1" d="M153.84,69.68h9.43a12.76,12.76,0,0,0,4-.43,6.24,6.24,0,0,0,2.34-1.7,3.55,3.55,0,0,0,1.17-2.12q0-.81-1.23-.81h-9.42a2.17,2.17,0,0,1-1.37-.39,1.8,1.8,0,0,1-.49-1.48V58.22c0-1-.41-1.51-1.23-1.51A5.74,5.74,0,0,0,153.7,58,3.77,3.77,0,0,0,152,61.15v6.66a1.8,1.8,0,0,0,.49,1.48A2.17,2.17,0,0,0,153.84,69.68Z"/><path class="cls-1" d="M171.35,94.34a.79.79,0,0,0-.67-.26,1.53,1.53,0,0,0-1,.4,14.46,14.46,0,0,1-1.23.88,9.15,9.15,0,0,1-1.85.88,8.13,8.13,0,0,1-2.76.4,5,5,0,0,1-2.44-.56,4.23,4.23,0,0,1-1.72-1.86,11.23,11.23,0,0,1-1-3.39,31.88,31.88,0,0,1-.35-5.11V73.44a1.91,1.91,0,0,0-.25-1.06,1.52,1.52,0,0,0-.67-.58,3.12,3.12,0,0,0-1-.24,11.75,11.75,0,0,0-1.21,0h-1a3.12,3.12,0,0,0-1.05.17,1.93,1.93,0,0,0-.85.58,1.82,1.82,0,0,0-.33,1.18V87a37.85,37.85,0,0,0,.53,6.86,11.75,11.75,0,0,0,1.72,4.53,6.77,6.77,0,0,0,3.08,2.51,11.94,11.94,0,0,0,4.58.78,11.35,11.35,0,0,0,4.63-.83,10.17,10.17,0,0,0,3-1.93,7.19,7.19,0,0,0,1.6-2.22,4.93,4.93,0,0,0,.47-1.7A1.07,1.07,0,0,0,171.35,94.34Z"/><path class="cls-1" d="M149.38,64.62c-.61,0-1.42.55-2.44,1.66a4.65,4.65,0,0,0-1.53,2.62q0,.78,1.23.78h1.65a1.8,1.8,0,0,0,1.48-.5,2.24,2.24,0,0,0,.38-1.38v-2C150.15,65,149.89,64.62,149.38,64.62Z"/></g></g></svg>