<?xml version="1.0" encoding="utf-8"?>
<!-- Generator: Adobe Illustrator 18.0.0, SVG Export Plug-In . SVG Version: 6.00 Build 0)  -->
<!DOCTYPE svg PUBLIC "-//W3C//DTD SVG 1.1//EN" "http://www.w3.org/Graphics/SVG/1.1/DTD/svg11.dtd">
<svg version="1.1" id="Calque_1" xmlns="http://www.w3.org/2000/svg" xmlns:xlink="http://www.w3.org/1999/xlink" x="0px" y="0px"
	 viewBox="0 112 496 384" enable-background="new 0 112 496 384" xml:space="preserve">
<path d="M48,448h16v16H48V448z"/>
<path d="M80,448h16v16H80V448z"/>
<path d="M112,448h16v16h-16V448z"/>
<path d="M384,448h64v16h-64V448z"/>
<path d="M480,416V152c0-22.1-17.9-40-40-40H56c-22.1,0-40,17.9-40,40v264H0v40c0,22.1,17.9,40,40,40h416c22.1,0,40-17.9,40-40v-40
	H480z M32,152c0-13.2,10.8-24,24-24h384c13.2,0,24,10.8,24,24v264h-16V160c0-8.8-7.2-16-16-16H64c-8.8,0-16,7.2-16,16v256H32V152z
	 M480,456c0,13.2-10.8,24-24,24H40c-13.2,0-24-10.8-24-24v-24h164.8c11.5,10.3,26.2,16,41.8,16h50.7c15.6,0,30.3-5.7,41.8-16H416
	v-16H308.7l-2.3,2.3c-8.8,8.8-20.5,13.7-33,13.7h-50.7c-12.5,0-24.2-4.8-33-13.7l-2.3-2.3H64V160h368v272h48V456z"/>
<path d="M392,336c-4.9,0-9.5,1.5-13.3,4l-27.9-20.9c0.7-2.3,1.2-4.6,1.2-7.1c0-13.2-10.8-24-24-24s-24,10.8-24,24
	c0,2.8,0.6,5.4,1.4,7.8l-44.8,35.8c-3.7-2.3-8-3.7-12.6-3.7c-5.4,0-10.3,1.8-14.3,4.8l-34.5-23c0.5-1.9,0.8-3.8,0.8-5.8
	c0-13.2-10.8-24-24-24s-24,10.8-24,24c0,2,0.3,4,0.8,5.8l-34.5,23c-4-3-8.9-4.8-14.3-4.8c-13.2,0-24,10.8-24,24s10.8,24,24,24
	s24-10.8,24-24c0-2-0.3-4-0.8-5.8l34.5-23c4,3,8.9,4.8,14.3,4.8s10.3-1.8,14.3-4.8l34.5,23c-0.5,1.9-0.8,3.8-0.8,5.8
	c0,13.2,10.8,24,24,24s24-10.8,24-24c0-2.8-0.6-5.4-1.4-7.8l44.8-35.8c3.7,2.3,8,3.7,12.6,3.7c4.9,0,9.5-1.5,13.3-4l27.9,20.9
	c-0.7,2.3-1.2,4.6-1.2,7.1c0,13.2,10.8,24,24,24s24-10.8,24-24S405.2,336,392,336z M104,384c-4.4,0-8-3.6-8-8s3.6-8,8-8s8,3.6,8,8
	S108.4,384,104,384z M176,336c-4.4,0-8-3.6-8-8s3.6-8,8-8s8,3.6,8,8S180.4,336,176,336z M248,384c-4.4,0-8-3.6-8-8s3.6-8,8-8
	s8,3.6,8,8S252.4,384,248,384z M328,320c-4.4,0-8-3.6-8-8s3.6-8,8-8s8,3.6,8,8S332.4,320,328,320z M392,368c-4.4,0-8-3.6-8-8
	s3.6-8,8-8s8,3.6,8,8S396.4,368,392,368z"/>
<path d="M208,176H80v112h128V176z M192,272H96v-80h96V272z"/>
<path d="M112,208h64v16h-64V208z"/>
<path d="M112,240h64v16h-64V240z"/>
<path d="M224,256h16v16h-16V256z"/>
<path d="M256,256h160v16H256V256z"/>
</svg>
