<svg xmlns="http://www.w3.org/2000/svg" viewBox="0 0 1197.98 1198.11"><defs><style>.cls-1{fill:#fff;}</style></defs><title>python</title><g id="Calque_2" data-name="Calque 2"><g id="Calque_1-2" data-name="Calque 1"><path d="M603,0a19.54,19.54,0,0,0,3.83.91c19.45.87,38.95,1,58.34,2.63C716.31,7.72,766.39,16.63,812.68,40.3,836.6,52.53,857.55,68.49,872.75,91c14.38,21.33,21.8,44.7,19.38,70.71-.2,2.15-.07,4.33-.07,6.49q0,125.73.11,251.47c0,19.37-1.38,38.54-7,57.22-13.93,46.39-45.41,75.6-90.07,91.8a202.94,202.94,0,0,1-69.91,12c-96.82-.06-193.64-.28-290.46.09-33.86.13-66.05,7.75-94.52,27.16-33.06,22.55-51.49,54.95-61.47,92.82a220.62,220.62,0,0,0-6.9,56.75q.09,65.25.06,130.48c0,6.64,0,6.65-6.44,6.65-30.33,0-60.66-.2-91,0-34.45.27-64-12.19-89.83-34.2-30.48-26-48.54-60.06-61.15-97.35A371.38,371.38,0,0,1,5.44,678C3.38,655.49,2.49,632.88,1,610.33.88,608.2.35,606.11,0,604V592a57.43,57.43,0,0,0,1.05-6.32c.82-14.78,1.29-29.58,2.35-44.34a387.41,387.41,0,0,1,14.11-79.88c10.54-36.42,26.28-70.11,52.69-98,23.57-24.9,52-41.05,85.62-48.3,16.27-3.51,32.61-3.09,49.09-3,59,.34,118,.1,177,.08l215.46-.08c6.91,0,6.93,0,6.94-7q0-14.25,0-28.5c0-7.11,0-7.12-7-7.12l-277.95,0c-6.86,0-6.87,0-6.87-6.78,0-42.66.44-85.33-.34-128-.36-19.71,4.61-37.12,15.86-53,15.21-21.44,36.17-35.65,59.64-46.39,48.6-22.23,100.56-29.32,153.18-32.9,15.94-1.09,32-1.06,47.92-1.6A24.55,24.55,0,0,0,593,0ZM437,91.57c-29.26,0-53.43,24.27-53.34,53.5.1,28.88,24.33,53.12,53.23,53.23,29.13.12,53.5-24.19,53.53-53.38A53.58,53.58,0,0,0,437,91.57Z"/><path class="cls-1" d="M437,91.57a53.58,53.58,0,0,1,53.42,53.35c0,29.19-24.4,53.5-53.53,53.38-28.9-.11-53.13-24.35-53.23-53.23C383.53,115.84,407.7,91.59,437,91.57Z"/><path d="M595,1198.11a19.54,19.54,0,0,0-3.83-.91c-19.45-.87-38.95-1-58.34-2.63-51.14-4.18-101.22-13.09-147.52-36.76-23.91-12.23-44.86-28.19-60.06-50.73-14.39-21.33-21.8-44.7-19.38-70.71.2-2.15.07-4.33.07-6.49q0-125.73-.12-251.47c0-19.37,1.39-38.54,7-57.22,13.93-46.39,45.41-75.6,90.06-91.8a203,203,0,0,1,69.92-12c96.82.06,193.64.28,290.46-.09,33.86-.13,66-7.75,94.52-27.16,33-22.55,51.49-54.95,61.47-92.82a220.12,220.12,0,0,0,6.89-56.75q-.07-65.25,0-130.48c0-6.64,0-6.65,6.44-6.65,30.33,0,60.66.2,91,0,34.45-.27,64,12.19,89.83,34.2,30.48,26,48.54,60.06,61.15,97.35a371.38,371.38,0,0,1,18.06,85.13c2.06,22.5,3,45.11,4.41,67.66.14,2.13.68,4.22,1,6.33v12a55.16,55.16,0,0,0-1,6.32c-.82,14.78-1.29,29.58-2.35,44.34a386.76,386.76,0,0,1-14.12,79.88c-10.53,36.42-26.27,70.11-52.68,98-23.57,24.9-52,41.05-85.63,48.3-16.27,3.51-32.6,3.09-49.09,3-59-.34-118-.1-177-.08L600.64,886c-6.91,0-6.93,0-6.94,7q0,14.25,0,28.5c0,7.11,0,7.12,7,7.12l277.94,0c6.87,0,6.87,0,6.88,6.78,0,42.66-.44,85.33.34,128,.35,19.71-4.62,37.12-15.86,53-15.21,21.44-36.17,35.65-59.64,46.39-48.61,22.24-100.56,29.32-153.18,32.9-15.94,1.09-32,1.06-47.92,1.6a24.55,24.55,0,0,0-4.32.94Zm166-91.57c29.25,0,53.43-24.27,53.33-53.5-.09-28.88-24.33-53.12-53.23-53.23-29.12-.12-53.5,24.19-53.52,53.38A53.57,53.57,0,0,0,761,1106.54Z"/></g></g></svg>